<svg xmlns="http://www.w3.org/2000/svg" viewBox="0.00 0.00 1024.00 910.00"><path fill="#c32b2a" d="M822.62 0q25.54.31 48.01 4.86 55.41 11.2 110.61 23.38 13.66 3.02 26.78 6.47 1.35.35.09.97l-11.35 5.54q-11.08-2.7-17.14-3.6-21.81-3.27-42.94-8.06c-6.85-1.55-13.56-2.23-20.04-4-11.41-3.12-25.29-6.83-35.82-7.88q-15.43-1.55-22.86-2.32-32.92-3.41-70.5-.11c-14.74 1.29-29.51 4.98-42.92 8.7-5.23 1.46-10.18 3.75-15.37 5.41q-4.4 1.4-11.34 4.5-11.81 5.26-23.49 11.74-16.65 9.23-21.89 12.58-20.92 13.4-36.81 26.48c-10.88 8.96-20.77 18.16-33.57 25.41q-18.88 10.7-24.31 13.93-2.58 1.53-5.47 4.6l-22.24 9.15q-1.35.55.01 1.07 11.67 4.46 26.34 9.13 2.42.77 4.75.41 5.66-.87 8.53-1.66 36.62-10.08 56.81-18.44 42.34-17.54 65.59-26.67Q766.1 80.4 823.52 72.51c21.19-2.9 43.25-.79 64.44 3.07 42.14 7.69 83.97 20.9 124.45 35.6q1.04.38-.03.68l-5.09 1.43c-7.36-1.14-14.72-1.94-21.96-3.37q-15.11-2.99-26.32-4.38c-15.27-1.91-26.95-3.97-39.75-4.66q-32.11-1.75-41.81-1.92-21.8-.37-53.33 1.85-10.9.77-28.84 3.62c-22.84 3.62-45.69 9.28-65.98 18.75-16.1 7.51-35.39 15.98-43.83 19.53q-12.16 5.09-30.87 11.36c-6.8 2.28-15.25 5.92-23.13 8.13q-.94.26-4.06 1.99 26.62 8.9 52.87 15.94 20.19 6.04 39.53 11.32 34.86 9.53 70.07 17.65 8.58 1.98 17.2 3.76 2.38.49 4.97 1.24 17.78 3.57 26.23 5.11 66.05 11.98 134.41 23.06c2.8.46 6.07 2.9 7.24 6.17q.37 1.04 1.59 3.57 1.13 2.34-.39 6.91c-2.26 6.78-7.36 12.74-12.48 17.71q-.54.53-1.28.41-28.92-4.54-57.73-6.14-2.53-.14-.14.72l45.8 16.43a.18.17 36.1 0 1 .05.3c-19.57 15.09-41.14 27.67-63.55 38.89a1.3 1.27-47 0 1-1.05.05q-57.17-22.22-109.63-40.81-2.99-1.06-.28.58 44.12 26.75 90.64 49.41a.4.4 0 0 1-.01.73l-15.23 6.9-7.47 3.94q-.36-.37-1.01-.11-36.72 14.86-65.48 24.51-9.56 3.2-19.1 5.93-55.62 15.91-84.36 22.16-43.55 9.47-99.12 16.48-10.01 1.26-19.88 2.23c-93.4 9.13-188.36 9.17-281.33-2.38l-9.07-1.5q-48.99-8.28-96.47-22.37-.6-.18-.08-.54 62.25-43.36 115.82-94.83 1.39-1.33-.31-.44-72.87 38.47-137.41 88.47a1.07 1.07 0 0 1-.88.21q-.46-.08-1.85-.55-31.14-10.38-55.34-21.59a.56.55-52.1 0 1-.11-.93q19.91-16.33 36.22-31.47 1.63-1.52-.38-.56-24.3 11.64-48.76 25.46a1.12 1.12 0 0 1-1.1 0c-6.98-3.89-19.7-11.78-20.13-20.02-.09-1.64-.57-3.24.08-4.72 1.87-4.3 4.84-5.66 9-7.98q2.16-1.21 4.69-2.37 15.51-7.1 26.43-11.58 59.1-24.19 117.95-47.51 13.06-5.18 25.17-11.05c43.72-19.1 86.88-39.4 129.95-60q13.37-6.23 26.71-12.74 8.77-4.28 17.5-9.64c22.03-13.52 37.85-23.64 64.4-40.68q.42-.27.83.02 8.81 6.37 16.89 7.63 18.03 2.81 31.97-8.99a.89.89 0 0 1 1.15-.01l2.83 2.36q.29.24.64.12 10.8-3.69 13.27-5.2 22.96-13.98 40.24-31.02Q604 77.4 611.88 70.38q32.4-28.83 73.55-44.33Q750.12 1.67 819.24 0zm-16.87 233.46a.09.09 0 0 0-.12.07.09.09 0 0 0 .03.08l14.01 10.48a.1.1 0 0 0 .06.02l8.27-.77a.09.09 0 0 0 .03-.16z"/><path d="M0 105.02v-1.5C1 93.19 9.28 84.98 17.83 80.1c15.26-8.72 25.8 5.81 33.61 16.52a.43.43 0 0 1-.13.62q-21.42 12.56-38.26 30.92-.44.48-.87-.01c-5.8-6.58-11.1-14.13-12.18-23.13M812.05 214.1q-2.59-.75-4.97-1.24-8.62-1.78-17.2-3.76-35.21-8.12-70.07-17.65-19.34-5.28-39.53-11.32 12.25-9.61 28.25-12.32c32.25-5.46 63.52 5.32 87.3 27.62q10.11 9.49 16.22 18.67M371.91 190.99c-43.07 20.6-86.23 40.9-129.95 60q6.68-16.46 17.87-28.91c23.04-25.62 52.85-39.43 87.36-37.28q12.09.75 24.72 6.19M856.24 344.1c6.32 22.39 6.08 45.9 5.97 68.94-.11 22.73-2.79 44.05-8.88 66.58-27.86 102.93-103.75 180.22-201.46 219.54q-70.67 28.44-145.91 20.43c-102.43-10.9-196.84-72.89-250.5-160.22q-24.23-39.45-34.77-84c-4.25-17.97 6.08-29.16 22.59-33.36q12.51-3.19 25.89-4.27.5-.04.44-.54-1.14-10.81-.19-21.84l9.07 1.5q-.87 10.19.4 20.15.07.53.61.54c27.11.31 50.93 8.47 74.06 21.87 3.23 1.87 9.34 5.06 13.33 7.55q24.23 15.15 45.75 27.32c30.25 17.1 65.1 39.99 99.01 58.08 15.19 8.11 31.49 14.97 47.99 19.49q67.46 18.45 132.55-9.49 4.03-1.74 6.51-3.17 39.2-22.56 40.32-23.22 4.65-2.75 12.43-8.78 20.85-16.14 37.11-32.87 40.54-41.73 57.94-95.19c1.7-5.22 4.21-9.08 6.96-12.68q1.01-1.31 1.03-1.95.53-18.25-5.72-36.47zM1024 814.1v.53l-9.8 70.7a.67.66 4 0 1-.66.57q-24.41-.02-49.04 0-4.52.01-6.26-3.95-.89-2.01-.28-6.55 3.42-25.54 5.09-37.56a.69.68 3.8 0 1 .68-.59h34.24q.47 0 .54-.47l3.21-22.5a.28.27 3.4 0 1 .28-.24zm-39.88 34.29a.52.52 0 0 0-.51.43l-4.24 25.35a.52.52 0 0 0 .51.61h12.79a.52.52 0 0 0 .51-.43l4.24-25.35a.52.52 0 0 0-.51-.61zM231 910h-22.23q3.06-3.59 6.31-6.88 2.35-2.39 3.8-5.13 3.31-6.28 6.63-12.56a1.85 1.84-39.8 0 0 .13-1.39q-6.44-21.72-11.81-40.17c-.87-3-1.61-4.13-3.57-5.89q-.83-.75.29-.75h22.96a.7.7 0 0 1 .68.53l5.62 22.97a.27.27 0 0 0 .51.06l9.92-20.87q.21-.44-.12-.8l-1.27-1.34q-.51-.54.23-.54h24.17a.32.32 0 0 1 .28.47Q255.76 870.5 238 903.26q-2.83 5.21-7 6.74M804.73 910h-51.72l2.02-14.9q.05-.37.33-.13l4.5 3.75a.52.49-23.7 0 0 .33.12h28.74a.53.53 0 0 0 .52-.43l2.01-12.07a.39.39 0 0 0-.38-.46h-34.22a.73.73 0 0 1-.72-.83l6.77-47.45q.05-.36.41-.36h56.71a.36.35-85.8 0 1 .35.41q-6.05 44.43-8.82 64.88-.74 5.45-6.83 7.47m-20.34-61.62a.37.37 0 0 0-.36.31l-4.27 25.51a.37.37 0 0 0 .37.43h12.23a.37.37 0 0 0 .36-.31l4.27-25.51a.37.37 0 0 0-.37-.43z"/><path fill="#fff" d="M848.77 348.04q6.25 18.22 5.72 36.47-.02.64-1.03 1.95c-2.75 3.6-5.26 7.46-6.96 12.68q-17.4 53.46-57.94 95.19-16.26 16.73-37.11 32.87-7.78 6.03-12.43 8.78-1.12.66-40.32 23.22-2.48 1.43-6.51 3.17-65.09 27.94-132.55 9.49c-16.5-4.52-32.8-11.38-47.99-19.49-33.91-18.09-68.76-40.98-99.01-58.08q-21.52-12.17-45.75-27.32c-3.99-2.49-10.1-5.68-13.33-7.55-23.13-13.4-46.95-21.56-74.06-21.87q-.54-.01-.61-.54-1.27-9.96-.4-20.15c92.97 11.55 187.93 11.51 281.33 2.38q9.87-.97 19.88-2.23 55.57-7.01 99.12-16.48 28.74-6.25 84.36-22.16 9.54-2.73 19.1-5.93 28.76-9.65 65.48-24.51.65-.26 1.01.11"/><g fill="#b02023"><path d="M996.76 41.22q-12.18 6.11-24.13 11.9c-1.5.73-2.07 1.5-3.87.81q-10.09-3.88-53.02-17.41c-47.66-15.03-97.63-19.12-146.82-9.65-26.9 5.17-53.16 13.21-77.58 25.44-17.44 8.72-33.52 20.21-48.69 32.6q-16.76 13.7-28.77 22.47-5.34 3.89-11.82 7.19-14.66 7.44-29.77 14.03 2.89-3.07 5.47-4.6 5.43-3.23 24.31-13.93c12.8-7.25 22.69-16.45 33.57-25.41q15.89-13.08 36.81-26.48 5.24-3.35 21.89-12.58 11.68-6.48 23.49-11.74 6.94-3.1 11.34-4.5c5.19-1.66 10.14-3.95 15.37-5.41 13.41-3.72 28.18-7.41 42.92-8.7q37.58-3.3 70.5.11 7.43.77 22.86 2.32c10.53 1.05 24.41 4.76 35.82 7.88 6.48 1.77 13.19 2.45 20.04 4q21.13 4.79 42.94 8.06 6.06.9 17.14 3.6M1007.29 113.29c-7.48 2.05-19.85 7.67-23.82 15.28q-1.6 3.06-3.73 10.74-2.5 9.01-.62 18.51.1.5-.27.14c-46.81-45.06-118.59-47.16-178.18-36.83-20.48 3.55-40.5 8.47-60.19 14.86-32.46 10.54-64.58 20.84-98.1 26.41q-4.3.72-14.97 1.79 3.12-1.73 4.06-1.99c7.88-2.21 16.33-5.85 23.13-8.13q18.71-6.27 30.87-11.36c8.44-3.55 27.73-12.02 43.83-19.53 20.29-9.47 43.14-15.13 65.98-18.75q17.94-2.85 28.84-3.62 31.53-2.22 53.33-1.85 9.7.17 41.81 1.92c12.8.69 24.48 2.75 39.75 4.66q11.21 1.39 26.32 4.38c7.24 1.43 14.6 2.23 21.96 3.37"/></g><path fill="#c32b2a" d="M493.74 96.86q.72 1.88.7-.13-.39-30.51-8.87-60.62a.76.75 81.3 0 1 .7-.96l14.36-.51a.41.41 0 0 1 .42.47q-5.15 34.14 2.82 67.75.14.58.33.02.27-.8.45-2.45 3.58-32.58.76-65.36-.06-.58.53-.61l22.21-.79a.33.32-77.9 0 1 .3.47q-12.73 26.28-15.47 54.27-.13 1.36.56.18 14.73-25.22 18.46-54.4.07-.53.6-.6c3.64-.43 14.93-.9 15.06 5.29q.08 3.45-1.51 6.58-8.52 16.86-16.22 36.78c-3.71 9.61-6.75 18.64-5.86 28.56q.04.52-.43.73-16.8 7.53-33.59 7.43-.56 0-.49-.56c1.22-9.03-1.52-17.87-5.4-25.68q-10.17-20.48-24.95-42.56-2.47-3.69-3.19-6.83c-1.48-6.51 7.46-7.24 12.04-7.47q6.49-.32 11.87-.39a.36.36 0 0 1 .37.34q2.11 31.34 13.44 61.05"/><path d="M74.74 127.9q-20.82 11.95-39.55 26.2a.68.68 0 0 1-.93-.1l-18.64-21.76a.46.45 53.6 0 1 .1-.68l41.54-26.63q.4-.26.69.12l16.93 22.13a.49.49 0 0 1-.14.72M59.46 183.35l-21.82-25.47a.46.46 0 0 1 .16-.72q22.11-9.9 42.98-21.39a.76.75-32.9 0 1 .96.2l15.53 20.29a.4.39-34.4 0 1-.11.58q-19.49 12.14-37.07 26.57a.46.46 0 0 1-.63-.06M62.18 185.62l40.98-21.33a.46.46 0 0 1 .57.13l73.41 95.91a.46.46 0 0 1-.19.71l-37.5 15.14a.46.46 0 0 1-.53-.13l-76.87-89.72a.46.46 0 0 1 .13-.71M714.4 412.77a.32.32 0 0 1 .34.14q11.69 18.6 14.06 39.66c2.18 19.52-7.21 43.24-27.48 50.06-14.86 5-29.49.16-39.06-12.41q-3.94-5.16-7.25-11.23-3.7-6.78-11.21-20.75-2.99-5.56-6.78-10.75c-4.37-6-11.03-11.18-17.11-15.68q-.89-.67.21-.82 50.32-6.99 94.28-18.22M429.78 490.97c-12.48-7.54-25.28-14.44-37.73-21.98q-4.8-2.91-29.96-18.19-.54-.33-.41-.95l1.69-7.7q.12-.54.67-.51 43.78 2.53 87.83 2.04a.3.3 0 0 1 .27.43q-3.05 6.37-5.57 13.32c-4.27 11.79-8.4 23.58-15.91 33.37q-.36.48-.88.17M550.33 504.78q-1.14-.18-3.66-.44-16.76-1.72-26.82-14.85c-7.84-10.25-3.12-21.17 8.85-23.84q23.65-5.28 46.55-3.92c12.43.74 17.73 10.95 12.03 21.81q-7.18 13.65-21.8 18.68-1.8.61-2.79 1.04-.46.19-.39.69l3.46 25.78a1.84 1.84 0 0 0 .92 1.36q25.42 14.34 47.78 34.27.68.61-.23.61-12.35.03-24.49-1.33-2.92-.33-5.33-1.71-14.25-8.14-25.35-19.38a.33.33 0 0 0-.49.02l-9.12 10.94a1.23 1.23 0 0 1-1.36.37l-17.05-6.12a.59.59 0 0 1-.19-1l18.27-15.65q.32-.28.35-.7l1.29-26.09q.02-.46-.43-.54M82.01 885.9H63.83a.34.34 0 0 1-.32-.47l25.23-61.4a.34.34 0 0 0-.1-.39l-2.81-2.34a.34.34 0 0 1 .22-.6h44.57a.34.34 0 0 1 .34.29l8.67 64.51a.34.34 0 0 1-.34.39h-19.2a.34.34 0 0 1-.34-.29l-2.3-17.13a.34.34 0 0 0-.34-.29H90.18a.34.34 0 0 0-.31.2l-7.55 17.32a.34.34 0 0 1-.31.2m23.7-54.04a.37.37 0 0 0-.34.22L94.7 856.54a.37.37 0 0 0 .34.52h20.98a.37.37 0 0 0 .36-.42l-3.29-24.46a.37.37 0 0 0-.36-.32zM485.35 846.92h-11.06a.48.48 0 0 1-.48-.5l1.26-25.26a.48.48 0 0 1 .48-.46h13.41a.48.48 0 0 1 .47.55l-3.6 25.26a.48.48 0 0 1-.48.41M642.12 874.78h42.01q.63 0 .54.62l-1.46 10.23a.3.29-85.4 0 1-.29.25q-55.49.05-57.62-.05c-4.61-.22-6.46-4.53-5.96-8.54q3.21-25.77 6.44-51.25.12-.92-.44-1.65l-2.39-3.12a.35.35 0 0 1 .28-.57h25.32a.53.52 4.2 0 1 .52.6l-7.53 52.82q-.09.66.58.66M380.32 848.91a.46.45-86.1 0 0-.45-.52h-11.92q-.66 0-.75.65l-5.2 36.42a.56.52 3.5 0 1-.55.45h-21.38a.3.3 0 0 1-.3-.34l6.34-44.46q.06-.38-.15-.71-.81-1.23-1.84-1.98-1.62-1.18.39-1.18h58.96a.46.45-86.1 0 1 .45.52l-6.79 47.62a.62.6 3.7 0 1-.61.52h-20.91q-.57 0-.49-.56zM930.67 848.91a.46.45-86.1 0 0-.45-.52H918.3q-.66 0-.75.65l-5.2 36.41a.56.52 3.5 0 1-.55.45h-21.38a.3.3 0 0 1-.3-.34l6.34-44.45q.06-.38-.15-.71-.81-1.23-1.84-1.98-1.62-1.18.39-1.18h58.96a.46.45-86.1 0 1 .45.52l-6.79 47.61a.62.6 3.7 0 1-.61.52h-20.91q-.57 0-.49-.56zM183.76 848.91a.46.45-86.1 0 0-.45-.52l-11.91-.01q-.66 0-.75.65l-5.21 36.41a.56.52 3.5 0 1-.55.45l-21.37-.01a.3.3 0 0 1-.3-.34l6.35-44.44q.06-.38-.15-.71-.81-1.23-1.84-1.98-1.62-1.18.39-1.18l58.94.02a.46.45-86.1 0 1 .45.52l-6.8 47.6a.62.6 3.7 0 1-.61.52l-20.91-.01q-.57 0-.49-.56zM305.25 885.9l-23.87.01c-5.16.09-7.41-4.75-6.79-9.23q3.77-27.46 5.3-38.87a.6.6 0 0 1 .58-.52q2.52-.03 25.22-.03 23.52 0 23.86-.01c5.17-.09 7.42 4.75 6.8 9.23q-3.77 27.46-5.3 38.87a.6.6 0 0 1-.59.52q-2.51.03-25.21.03m4.19-11.13a.42.42 0 0 0 .42-.35l4.27-25.54a.42.42 0 0 0-.42-.49h-12.29a.42.42 0 0 0-.42.35l-4.28 25.54a.42.42 0 0 0 .42.49zM430 874.79h29.76a1.07 1.02-63.2 0 0 .65-.23l4.83-3.69q.74-.57.54.35l-3.11 14.24a.57.56-83.6 0 1-.55.44q-30.54-.01-46.11-.02-3.73 0-4.94-.49c-4.9-2.01-3.68-8.3-3.14-12.36q2.38-17.76 4.78-35.31a.55.55 0 0 1 .54-.47h56.49a.38.37-86 0 1 .37.43l-3.93 27.57q-.11.75-.92.75h-34.07q-.53 0-.61.53l-1.09 7.67q-.09.59.51.59m16.94-25.98a.36.36 0 0 0-.36-.42h-12.43a.36.36 0 0 0-.35.3l-.96 5.75a.36.36 0 0 0 .36.42h12.43a.36.36 0 0 0 .35-.3zM527.25 867.1h-31.92a.4.4 0 0 1-.4-.46l4.11-28.81a.68.68 0 0 1 .67-.59h52.05q.47 0 .4.49l-1.91 13.41a.57.56 4.1 0 1-.56.48h-18.07q-.54 0-.69-.52-.2-.66.27-1.59a.77.77 0 0 0-.68-1.12h-11.79q-.65 0-.74.63l-.9 6.36q-.08.55.48.55h31.13a.34.34 0 0 1 .34.38q-1.59 15.49-1.84 18.17-.46 5.06-2.05 7.19c-2.31 3.13-5.48 4.19-9.55 4.21q-12.69.06-42.45-.01-.61-.01-.52-.61l1.96-13.78q.19-1.27.97-.25l2.38 3.1q.34.45.89.45h27.45a.64.64 0 0 0 .63-.55l.92-6.46q.1-.67-.58-.67M709.59 866.53l-1.09 7.67q-.09.59.51.59h29.76a1.07 1.02-63.2 0 0 .65-.23l4.83-3.69q.74-.57.54.35l-3.11 14.24a.57.56-83.6 0 1-.55.44q-30.54-.01-46.11-.02-3.73 0-4.94-.49c-4.9-2-3.68-8.3-3.14-12.36q2.38-17.76 4.77-35.31a.55.55 0 0 1 .54-.47h56.5a.38.37-86 0 1 .37.43l-3.93 27.57q-.11.75-.92.75H710.2q-.53 0-.61.53m2.26-12.09a.36.36 0 0 0 .36.42h12.43a.36.36 0 0 0 .35-.3l.96-5.75a.36.36 0 0 0-.36-.42h-12.43a.36.36 0 0 0-.35.3zM846.69 866.53l-1.08 7.68q-.09.59.51.59l29.77-.01a1.07 1.02-63.2 0 0 .65-.23l4.83-3.7q.74-.57.54.35l-3.11 14.25a.57.56-83.6 0 1-.55.44q-30.55 0-46.12-.01-3.73 0-4.95-.49c-4.9-2-3.68-8.3-3.14-12.36q2.38-17.76 4.77-35.32a.55.55 0 0 1 .54-.47l56.51-.02a.38.37-86 0 1 .37.43l-3.93 27.58q-.1.75-.92.75l-34.08.01q-.53 0-.61.53m2.27-12.07a.34.34 0 0 0 .33.4h12.46a.34.34 0 0 0 .34-.28l.96-5.79a.34.34 0 0 0-.33-.4h-12.46a.34.34 0 0 0-.34.28z"/><g fill="#fff"><path d="M509.03 271.13c-4.17-20.9-3.02-40.78 2.36-61.44q.35-1.36.88-.06 11.65 28.8 13.96 59.96a.68.68 0 0 1-.62.72l-15.73 1.45a.79.79 0 0 1-.85-.63M640.16 211.47c19.43 12.53 37.07 26.93 51.07 45.32a.34.33-21.3 0 1-.24.53l-18.46 1.7q-.51.05-.89-.31-21.07-19.96-32.24-46.6-.65-1.55.76-.64M356.49 268.01q-1.31 8.47-2.43 12.96a.48.47 4.2 0 1-.42.36l-17.07 1.57a.63.63 0 0 1-.65-.85q8.55-22.88 22.59-42.79.37-.52.78-.29a.33.32 16.4 0 1 .17.3q-.75 14.47-2.97 28.74"/></g></svg>