<svg width="240" height="240" viewBox="0 0 240 240" fill="none" xmlns="http://www.w3.org/2000/svg">
<g clip-path="url(#clip0_10_586)">
<path fill-rule="evenodd" clip-rule="evenodd" d="M58.9708 20L59.0673 20.3905L59.2603 20.5859L59.4535 21.4649L59.6465 21.6601V21.9531L60.1292 22.9296V23.2227L60.3222 23.418L60.5154 24.2968L60.7083 24.4922L61.3843 26.5428L61.5772 26.7382V27.0312L61.9634 27.8123V28.1054L62.3495 28.8867L62.5425 29.6678L62.8323 30.0585V30.3516L63.2184 31.1327V31.4257L63.6046 32.207V32.4999L63.7976 32.6953V32.9883L63.9907 33.1835V33.4766L64.4733 34.453V34.7461L64.6665 34.9415L64.8594 35.8202L65.0526 36.0156V36.3087L65.4388 37.0898L65.5354 37.5782L65.7283 37.7734V38.0664L65.9215 38.2618V38.5547L66.3077 39.3358V39.6288L66.6938 40.4101L66.7902 40.8986L66.9834 41.0937L67.1763 41.8748L67.5625 42.6563V42.9492L67.9486 43.7305V44.0235L68.1418 44.2187V44.5118L68.6246 45.4882L68.8175 46.2695L69.0107 46.4649V46.7578L69.3969 47.5391V47.8321L69.8794 48.8086V49.1016L70.0726 49.2968V49.5899L70.2656 49.7853V50.0781L71.1347 52.1287V52.4218L71.3277 52.6172V52.9102L71.7138 53.6913L71.9068 54.4726L72.5825 55.9375V56.2304L72.9686 57.0117V57.3047L73.8375 59.2579V59.5507L74.2237 60.332V60.6251L74.4169 60.8202V61.1133L74.996 62.3828V62.6757L75.2856 63.0664L75.4787 63.9452L75.6717 64.1406V64.4337L76.0579 65.2147V65.5078L76.9268 67.4609V67.754L77.3129 68.5351V68.8282L77.6991 69.8046L77.9886 70.2931L78.1818 71.0741L78.568 71.8554V72.1485L78.7609 72.3437V72.6367L79.1471 73.4178L79.2437 73.9063L79.6298 74.5899V74.8827L80.016 75.664V75.9571L80.4021 76.7382V77.0312L80.6917 77.4218V77.7148L81.271 78.9844V79.2774L81.6572 80.0585V80.3516L82.3327 81.8165V82.1093L82.912 83.3789V83.6719L83.1052 83.8671V84.1602L83.3948 84.8438L82.5259 85.1366H82.0434L81.5606 85.332H81.0779L80.7883 85.5274H80.209L79.9194 85.7226H79.4367L78.568 86.0156H78.1818L77.7957 86.211H77.3129L76.9268 86.4062H76.444L76.0579 86.6015H75.5753L75.1892 86.7969H74.7064L74.3203 86.9921L72.9686 87.1875L72.1963 87.4805H71.7138L71.424 87.6757H70.8449L70.4588 87.8711H69.976L69.5899 88.0664H69.1071L68.721 88.2618H68.2384L67.8523 88.457L66.5006 88.6524L65.8249 88.9452H65.2456L64.956 89.1406H64.4733L63.9907 89.336H63.508L63.1218 89.5313H62.6391L62.2529 89.7265H61.7702L61.3843 89.9219H60.9015L60.2258 90.2147H59.6465L59.3569 90.4101H58.8742L58.488 90.6055H58.0053L57.5227 90.8009H57.04L56.6538 90.996H56.1709L55.7847 91.1914H55.302L54.9158 91.3868H54.4333L53.7574 91.6796H53.2753L52.0202 92.0704H51.537L51.0543 92.2656H50.5718L50.1856 92.4609H49.7029L49.3167 92.6563H48.9308L47 93.1445V93.3399L48.1585 94.3164L48.448 94.7069L49.0274 95.0977L49.3169 95.4882L51.6338 97.6367L52.4061 98.2227L52.7923 98.7111L53.3714 99.1016L53.8542 99.6876L55.3988 100.957L55.9781 101.641L57.7157 103.105L58.1984 103.691L59.936 105.156L60.3222 105.645L62.06 107.109L62.3495 107.5L62.9287 107.891L64.6665 109.649L66.404 111.113L66.6938 111.504L67.2729 111.895L67.8523 112.578L71.617 115.898L72.1 116.484L73.9341 118.047L74.4169 118.633L75.9615 119.902L77.4093 121.367L78.1816 121.953L78.7609 122.637L81.1745 124.687L82.912 126.445L83.4914 126.836L83.9741 127.422L85.5187 128.691L86.0978 129.375L87.8357 130.84L88.3182 131.426L90.056 132.891L90.4421 133.379L92.1797 134.844L92.4693 135.234L93.0486 135.625L93.5314 136.211L96.5238 138.848L96.8135 139.238L97.3929 139.629L97.972 140.312L101.737 143.633L102.22 144.219L104.054 145.781L104.537 146.367L106.081 147.637L106.564 148.223L108.302 149.688L108.881 150.371L111.294 152.422L111.874 153.105L113.611 154.57L114.094 155.156L115.638 156.426L116.218 157.109L119.5 160.039L121.238 158.477L121.72 157.891L122.106 157.695L122.589 157.109L124.134 155.84L124.713 155.156L126.451 153.691L126.934 153.105L128.478 151.836L129.733 150.566L130.602 149.883L131.085 149.297L131.664 148.906L131.953 148.516L134.946 145.879L135.429 145.293L135.815 145.098L136.298 144.512L137.842 143.242L138.422 142.559L142.186 139.238L142.766 138.555L144.503 137.09L144.986 136.504L145.372 136.309L145.758 135.82L146.531 135.234L148.848 133.086L149.137 132.695L149.716 132.305L150.006 131.914L151.744 130.449L153.288 128.887L153.867 128.496L154.35 127.91L155.895 126.641L156.474 125.957L158.212 124.492L158.694 123.906L160.239 122.637L161.59 121.27L162.556 120.488L162.846 120.098L163.425 119.707L163.714 119.316L164.583 118.633L166.997 116.289L167.576 115.898L168.058 115.312L169.796 113.848L170.182 113.359L171.92 111.895L172.403 111.309L174.141 109.844L174.527 109.355L176.264 107.891L176.554 107.5L177.133 107.109L177.519 106.621L178.388 105.938L180.705 103.691L181.284 103.301L181.767 102.715L185.629 99.2968L186.111 98.7109L187.849 97.246L188.235 96.7578L189.973 95.2931L190.262 94.9023L190.842 94.5118L191.903 93.4374V93.2422L191.131 93.1445L190.455 92.8515L188.332 92.4609L187.945 92.2656H187.366L187.077 92.0704H186.594L186.208 91.875L184.856 91.6796L184.084 91.3868H183.601L183.312 91.1914H182.829L182.443 90.996H181.96L181.574 90.8009H181.091L179.836 90.4101H179.257L178.967 90.2147H178.485L177.809 89.9219H177.326L176.94 89.7265H176.457L176.071 89.5313H175.589L175.202 89.336H174.72L174.334 89.1406L172.982 88.9452L171.437 88.457H170.955L170.569 88.2618H170.086L169.7 88.0664H169.217L168.831 87.8711H168.348L167.962 87.6757L166.61 87.4805L165.935 87.1875H165.452L165.066 86.9921H164.583L164.197 86.7969H163.714L163.328 86.6015H162.846L162.459 86.4062H161.977L161.59 86.211H161.108L159.563 85.7226H159.081L158.694 85.5274H158.212L157.826 85.332H157.343L156.957 85.1366H156.474L155.509 84.8438L156.184 82.8906L156.378 82.6953V82.4024L156.764 81.6211V81.328L157.15 80.547V80.2539L158.019 78.3008V78.0079L159.274 74.9804V74.6876L159.66 73.9063V73.6132L159.853 73.418L160.046 72.6367L160.336 72.1483V71.8557L160.722 71.1718V70.879L161.108 70.0977V69.8046L161.494 69.0235V68.7305L161.784 68.3399V68.0469L162.363 66.7773V66.4843L162.749 65.7032V65.4101L162.942 65.2147L163.038 64.7265L163.425 63.9454V63.6524L164.004 62.3828V62.0898L164.197 61.8946V61.6015L164.68 60.6251V60.332L164.873 60.1366L165.066 59.2579L165.259 59.0625L165.452 58.2814L165.935 57.3045V57.0119L166.128 56.8165V56.5234L167.383 53.4959V53.2033L167.769 52.4218V52.1289L168.155 51.3479V51.0548L168.348 50.8594V50.5663L168.541 50.3712L168.638 49.8827L169.024 49.1016V48.8086L169.217 48.6132L169.41 47.7344L169.603 47.5391L169.7 47.0506L170.279 45.7811V45.4884L170.472 45.2931V45L170.858 44.2189V43.9259L171.727 41.9727V41.6796L172.113 40.8986V40.6055L172.789 39.1406V38.8477L173.368 37.5782V37.2849L173.561 37.0895L173.754 36.2108L174.044 35.82V35.5272L174.43 34.7459V34.4528L174.816 33.7694V33.4763L175.202 32.6953V32.4022L175.492 32.0114L175.685 31.1327L175.878 30.9373L176.071 30.1562L176.457 29.3747V29.0818L177.133 27.6169V27.3245L177.519 26.5432L177.712 25.7619L177.906 25.5666V25.2737L178.388 24.297V24.0042L178.774 23.2229V22.9298L178.967 22.7347L179.16 21.8557L179.354 21.6603L179.643 20.9767V20.6836L179.836 20.4882L179.933 20L179.354 20.1954L177.906 21.2695L177.423 21.4649L176.361 22.1485L176.264 22.3437L175.782 22.5391L174.141 23.6132L174.044 23.8086H173.851L173.078 24.3945H172.886L172.789 24.5899L170.955 25.664L169.796 26.543L169.314 26.7382L169.217 26.9336H169.024L167.672 27.8125L167.576 28.0079L166.031 28.8867L165.935 29.0821L164.197 30.0585L162.749 31.1329L162.266 31.3281L161.204 32.0117L161.108 32.207L160.625 32.4024L159.563 33.086L159.467 33.2812L158.984 33.4766L158.887 33.6719H158.694L157.922 34.2579H157.729L157.633 34.453L155.798 35.5274L152.999 37.4805L152.516 37.6757L152.419 37.8711L150.875 38.7501L150.778 38.9452L149.041 39.9219L147.593 40.996H147.399L146.531 41.6796L146.048 41.875L145.951 42.0704L145.469 42.2656L144.6 42.9492H144.407L144.31 43.1446L143.828 43.3399L143.731 43.5351H143.538L141.125 45.1954L140.642 45.3905L139.483 46.2695L139.001 46.4649L137.842 47.3437L137.359 47.5391L137.263 47.7344L135.718 48.6132L135.622 48.8086H135.429L132.436 50.8592H132.243L131.374 51.543L130.891 51.7382L130.795 51.9336L130.312 52.1289L129.443 52.8125H129.25L129.154 53.0079L128.671 53.2031L127.513 54.0821L127.03 54.2774L124.327 56.1329L123.844 56.328L122.975 57.0117H122.782L122.686 57.207L122.203 57.4024L122.106 57.5976H121.914L119.5 59.2579L116.411 57.207L115.928 57.0117L115.832 56.8165L114.77 56.1329L114.287 55.9375L114.19 55.7421L113.708 55.547L113.129 55.0585L112.646 54.8634L112.549 54.668L112.066 54.4726L111.198 53.789H111.005L109.363 52.6172L107.819 51.7382L107.722 51.543L106.178 50.664L106.081 50.4686L105.598 50.2735L104.73 49.5899H104.537L104.44 49.3945L103.957 49.1991L101.254 47.3437L100.772 47.1485L99.9028 46.4649H99.7098L99.613 46.2695L99.1305 46.0741L98.2616 45.3905H98.0686L97.972 45.1954L97.4893 45L97.3929 44.8046H97.1997L96.3308 44.121L95.8483 43.9259L93.1452 42.0704L92.6625 41.875L92.5659 41.6796H92.3729L91.504 40.996L91.0212 40.8009L90.9247 40.6055L89.38 39.7265L89.2837 39.5314L88.8009 39.336L86.0978 37.4805H85.9049L85.0358 36.7969L84.5532 36.6015L84.4566 36.4062L82.912 35.5274L82.8157 35.332L81.271 34.453L81.1742 34.2579L80.6917 34.0625L79.6298 33.2814H79.4367L79.3403 33.086L77.5059 32.0117L76.6372 31.3281H76.444L76.3474 31.1329L75.8649 30.9375L74.996 30.2539H74.803L74.7062 30.0585L74.2237 29.8634L74.1271 29.668H73.9341L73.1618 29.0821H72.9686L72.8723 28.8867L69.8794 26.9336L69.3969 26.7382L68.2384 25.8594L67.7557 25.664L67.6591 25.4686H67.4661L63.1216 22.5391L62.6389 22.3437L61.4804 21.4649H61.2874L61.1909 21.2695H60.9979L60.1288 20.5859L59.6462 20.3905L59.5497 20.1954L58.9708 20ZM66.1145 28.8867L68.3348 30.2539L68.6246 30.547L68.9141 30.6444L69.0107 30.8398L69.4933 31.0352L70.9415 32.1094L71.424 32.3047L71.5208 32.5001L72.0034 32.6953L73.4514 33.7696L73.9341 33.9648L74.0307 34.1602H74.2237L76.2511 35.6251H76.444L78.1818 36.8946L78.6643 37.0898L78.7612 37.2851L80.9813 38.6524L81.0781 38.8477L81.5606 39.0429L81.6572 39.2383H81.8502L83.4914 40.3124L83.588 40.5078L84.0705 40.7032L84.1673 40.8983L84.6498 41.0937L86.0978 42.1679L86.5806 42.3633L86.6772 42.5586L87.1597 42.754L88.608 43.8282L89.0905 44.0235L89.1871 44.2187L89.4766 44.3164L96.717 49.2968L97.1997 49.4922L97.2963 49.6876L97.5859 49.7853L101.061 52.2266L101.544 52.4218L101.641 52.6172L101.93 52.7148L103.958 54.1798L104.44 54.3749L104.537 54.5703L105.02 54.7657L105.116 54.9608H105.309L105.888 55.4493L108.205 56.914L108.302 57.1093L108.785 57.3047L108.881 57.4999L109.364 57.6953L112.067 59.6484L112.549 59.8438L112.646 60.0392L113.129 60.2343L113.225 60.4297L113.708 60.6251L114.287 61.1133L116.314 62.3828L116.411 62.5782L116.894 62.7734L116.99 62.9688L117.473 63.1641L119.404 64.5314L119.79 64.4337L119.886 64.2383L120.369 64.0429L123.072 62.0898L123.555 61.8946L123.652 61.6992L124.134 61.5038L124.231 61.3087L124.713 61.1133L125.003 60.8202L127.03 59.5507L127.127 59.3556L127.609 59.1602L134.27 54.5705L134.753 54.3749L135.236 53.8867L137.07 52.8125L137.36 52.5195L137.649 52.4218L137.746 52.2266L138.229 52.0312L139.387 51.1523L141.414 49.8827L141.511 49.6876L141.993 49.4922L142.09 49.2968L142.573 49.1016L144.021 48.0273L144.504 47.8321L144.6 47.6367L145.083 47.4414L147.786 45.4882L148.269 45.2931L148.365 45.0977L148.848 44.9023L148.944 44.7069L149.427 44.5118L151.84 42.7538L152.613 42.3633L152.709 42.1679L153.192 41.9727L158.984 37.9688L159.467 37.7734L159.564 37.5782L160.046 37.3828L160.143 37.1875L161.784 36.211L162.073 35.9179L162.363 35.8202L162.46 35.6251L162.942 35.4297L164.39 34.3556L164.873 34.1602L164.969 33.9648L165.452 33.7696L165.549 33.5743L167.383 32.5001L167.48 32.3047L167.962 32.1094L172.596 28.8867L172.886 28.9844L172.21 30.547V30.8398L171.824 31.6209V31.914L170.955 33.8671V34.1602L170.569 34.9413V35.2343L170.376 35.4297V35.7226L169.797 36.9921L169.7 37.4805L169.507 37.6757L169.314 38.5547L169.121 38.7501V39.0429L168.735 39.8242V40.1173L167.866 42.0704V42.3633L167.48 43.1443V43.4374L166.611 45.3905V45.6836L166.225 46.4647V46.7578L166.032 46.9531V47.246L165.549 48.2227V48.5157L165.163 49.1991L164.969 50.0781L164.777 50.2735V50.5663L164.294 51.543V51.8359L164.101 52.0312V52.3243L163.521 53.5938V53.8867L163.135 54.6678V54.9608L162.846 55.3516V55.6444L161.88 57.9883V58.2812L161.687 58.4766V58.7696L161.205 59.7461V60.0392L160.818 60.8202V61.1133L160.625 61.3087V61.6015L160.432 61.7969V62.0898L159.95 63.0664V63.3593L159.757 63.5547V63.8477L159.37 64.6288L158.984 65.8983L158.695 66.3868V66.6796L158.501 66.875V67.1679L158.115 67.9494V68.2425L157.729 69.0235V69.3166L157.247 70.1956V70.4884L156.86 71.2697V71.5628L156.474 72.3439V72.637L156.281 72.8323L155.992 73.8088L155.605 74.5899V74.8829L155.412 75.0783V75.3714L155.026 76.1525V76.4455L154.544 77.422V77.7151L154.35 77.9104V78.2033L154.157 78.3987V78.6915L153.771 79.4728V79.7659L153.095 81.2306L152.902 82.0119L152.516 82.7932V83.0862L152.13 83.8673V84.1604L151.84 84.5509V84.844L151.454 85.6251V85.9181L151.261 86.1135V86.4064L151.068 86.6018L150.875 87.3828L153.771 87.969L154.157 88.1644H154.64L155.026 88.3595H155.509L155.895 88.5549H156.378L156.764 88.7503L157.536 88.848L157.922 89.0431H158.405L158.791 89.2385H159.274L159.66 89.4339H160.143L160.529 89.629H161.012L161.398 89.8244H161.88L163.425 90.3129H163.908L164.294 90.508H164.777L165.163 90.7034H165.645L166.032 90.8986H166.514L166.9 91.0939L168.252 91.2893L168.928 91.5822H169.41L169.797 91.7776H170.279L170.665 91.9729H171.148L171.534 92.1681H172.017L172.403 92.3635H172.886L173.272 92.5589L174.623 92.7542L175.299 93.0471H175.782L176.168 93.2425H176.651L177.037 93.4376H177.52L177.906 93.633H178.388L178.774 93.8284L180.126 94.0238L180.802 94.3166H181.285L181.671 94.512H182.153L182.54 94.7071H183.022L183.408 94.9025H183.891L184.76 95.1956L184.181 95.8792L181.767 97.9298L181.285 98.516L177.423 101.934L176.94 102.52L175.396 103.789L174.817 104.473L171.052 107.793L170.472 108.477L166.707 111.797L166.128 112.481L163.715 114.531L163.232 115.117L159.37 118.535L158.888 119.121L157.343 120.391L156.764 121.074L152.999 124.395L152.42 125.078L150.006 127.129L148.076 129.082L147.689 129.278L147.4 129.668L145.662 131.133L145.179 131.719L143.538 133.086L143.056 133.672L139.29 136.992L138.711 137.676L138.132 138.067L136.877 139.336L136.105 139.922L135.719 140.411L134.946 140.996L134.367 141.68L133.981 141.875L133.691 142.266L131.954 143.731L131.374 144.414L129.637 145.879L129.347 146.27L127.609 147.735L127.32 148.125L125.485 149.688L125.003 150.274L124.424 150.664L124.134 151.055L119.5 155.254L113.225 149.59L112.743 149.004L112.163 148.613L111.874 148.223L111.005 147.539L109.75 146.27L108.881 145.586L108.398 145L108.012 144.805L107.433 144.121L106.661 143.535L104.247 141.192L103.668 140.801L103.185 140.215L101.158 138.457L100.868 138.067L99.3239 136.797L98.8411 136.211L97.1033 134.746L96.5242 134.063L94.7864 132.598L94.4969 132.207L94.1107 132.012L92.3731 130.254L91.6008 129.668L90.3458 128.399L89.7666 128.008L89.1873 127.325L87.4497 125.86L86.967 125.274L85.2292 123.809L84.843 123.32L83.1054 121.856L82.6227 121.27L78.7612 117.852L78.2784 117.266L77.6993 116.875L77.4097 116.484L76.5408 115.801L74.2239 113.653L73.9344 113.262L73.5482 113.067L73.0655 112.481L72.1002 111.699L70.7485 110.332L69.2039 109.063L68.5282 108.282L66.9836 107.012L66.4043 106.328L64.6667 104.864L64.3771 104.473L63.991 104.278L63.4116 103.594L62.5427 102.91L62.2532 102.52L60.3224 100.86L60.226 100.664L59.6467 100.274L58.971 99.4924L58.1021 98.8088L54.2405 95.1956L54.7233 94.9025H55.206L55.5922 94.7071H56.0747L56.4609 94.512L57.8125 94.3166L58.4882 94.0238L59.9362 93.8284L60.3224 93.633H60.8051L61.0947 93.4376H61.674L62.0602 93.2425L63.4116 93.0471L64.0873 92.7542H64.5701L64.9562 92.5589L66.4043 92.3635L66.694 92.1681H67.2732L67.5627 91.9729L69.011 91.7776L70.5556 91.2891H71.0381L72.2931 90.8986H72.8725L73.162 90.7034H73.6448L74.0309 90.508L75.4787 90.3127L77.0234 89.8244H77.5061L77.8923 89.629H78.375L78.7612 89.4339H79.2439L79.6301 89.2385H80.1128L80.499 89.0431H80.9815L81.4642 88.848L82.2365 88.7503L82.5261 88.5549L83.9743 88.3595L84.3605 88.1644H84.843L85.2292 87.969H85.7119L86.0981 87.7736H86.5808L86.967 87.5784H87.4497L88.0288 87.3831V87.09L87.8359 86.8948V86.6018L87.3531 85.6253V85.3322L86.967 84.6486V84.3558L86.5808 83.5745V83.2814L86.1947 82.5003L86.0981 82.0119L85.9051 81.8167V81.5236L84.9396 79.18V78.8869L84.7466 78.6915V78.3987L84.2639 77.422V77.1292L83.8777 76.4455L83.6846 75.5666L83.4916 75.3714V75.0783L83.0088 74.1019V73.8088L82.8159 73.6134V73.3206L82.2365 72.051V71.758L81.7538 70.7815V70.4884L81.5608 70.2933V70.0002L81.1747 69.2191V68.9261L80.3058 66.9729V66.6799L79.3405 64.3362V64.0431L79.1473 63.848L79.0507 63.3595L78.6646 62.5784V62.2854L78.4716 62.09V61.7971L78.0854 61.0158V60.7228L77.6027 59.844V59.5509L77.4097 59.2581V58.965L77.2165 58.7699V58.4768L76.8304 57.6957V57.4026L75.9617 55.4495V55.1564L75.5756 54.3754V54.0823L75.1894 53.1056L74.8996 52.6174V52.3245L74.3205 51.055V50.7619L74.1273 50.5666V50.2737L73.2586 48.2229V47.9298L72.8725 47.2462V46.9534L72.4863 46.1723V45.8792L72.1966 45.4884V45.1956L71.8104 44.4143V44.1212L71.2313 42.8517L71.0381 42.0706L70.5556 41.0939V40.8009L70.1694 40.0196V39.7265L69.7833 39.0429V38.7503L69.3005 37.7736V37.4807L68.9144 36.6994V36.4064L68.7212 36.2112V35.9182L68.0457 34.4532V34.1604L67.8525 33.965V33.6722L67.4663 32.8909V32.5978L67.0802 31.8167L66.9834 31.3283L66.5974 30.6447V30.3518L66.0181 28.9846L66.1145 28.8867ZM86.0013 45.5859L86.0981 46.1718L86.291 46.3672V46.6601L86.484 46.8554V47.1485L86.8702 47.9296V48.2227L87.5459 49.6876L87.7391 50.4686L87.932 50.664V50.9571L89.1871 53.9844V54.2774L89.5732 55.0585V55.3516L89.7664 55.547V55.8398L90.1526 56.6209L90.2489 57.1093L110.136 71.6601V128.203L116.314 133.574L116.411 133.77L116.99 134.16L117.859 135.039H118.052V67.2658L116.99 66.6796L116.893 66.4843L114.866 65.2147L112.453 63.457L111.97 63.2618L111.873 63.0664L110.812 62.4805L108.398 60.7226L106.371 59.453L106.274 59.2579L105.792 59.0625L105.695 58.8671L105.212 58.6719L101.351 55.9375H101.158L101.061 55.7421L100.578 55.547L100.482 55.3516L100.192 55.2539L97.2963 53.2033L96.8135 53.0079L96.717 52.8125L96.4274 52.7148L96.0412 52.3243L95.5585 52.1289L95.4621 51.9336L94.9794 51.7382L94.8828 51.543L94.4 51.3476L91.9867 49.5897L90.6351 48.8086L90.5385 48.6132L89.9594 48.3204L89.8628 48.125L89.3803 47.9296L89.2835 47.7344L88.8009 47.5391L86.0013 45.5859ZM152.902 45.5859L120.948 67.2656V135.039L128.767 128.203V71.6601L130.988 70.0977L131.084 69.9023L131.663 69.6095L132.436 69.0235L132.532 68.8282L132.822 68.7305L134.463 67.4609L134.753 67.3633L134.849 67.1679L136.201 66.2891L136.298 66.0937L137.263 65.5078L138.035 64.8242L139.29 64.0431L139.387 63.8477L140.738 62.9688L140.835 62.7734L141.414 62.4805L142.186 61.8946L142.283 61.6992H142.476L142.765 61.4062L143.055 61.3087L143.538 60.8202L144.503 60.2343L144.6 60.0392L145.951 59.1602L146.048 58.9648L147.013 58.3789L147.496 57.8904L148.075 57.5978L148.654 57.1093V56.8165L149.04 56.0352V55.7421L149.33 55.3516V55.0585L149.716 54.2774V53.9844L150.102 53.3008V53.0079L150.488 52.2266V51.9336L150.778 51.543V51.2499L151.357 49.9804V49.6876L151.55 49.4922V49.1991L152.033 48.2227V47.9296L152.419 47.246V46.9531L152.805 46.1721L152.902 45.5859ZM52.7923 194.902V219.316H72.2929L73.548 219.024H74.1271L74.5133 218.828L75.4787 218.633L76.7336 218.047L78.0852 216.973L78.8575 215.801V215.605L79.0505 215.41V215.117L79.3403 214.629V214.141L79.5332 213.555V211.406L79.3403 210.82V210.234L78.4714 208.281L77.5059 207.207L76.7336 206.621L77.4095 205.742L77.6025 205.644L78.2782 204.375L78.6643 202.617V201.152L78.4714 200.469V199.883L78.2782 199.59L78.0852 198.809L77.4095 197.637L76.5406 196.66L75.7683 196.074L74.4169 195.391H74.1271L73.8375 195.195H73.3548L73.0652 195H72.1L72.0031 194.902H52.7923ZM134.946 195L134.753 195.195H134.463L132.726 196.074H132.533L132.05 196.465L131.567 196.66L131.471 196.855L130.216 197.734L128.768 199.199L128.092 200.078L127.995 200.371L127.802 200.469L126.74 202.617V202.91L126.354 203.887V204.375L126.161 204.863V205.742L126.064 205.84L126.161 209.356L126.74 211.602L126.934 211.797V212.09L127.995 214.043L128.188 214.141L128.864 215.117L130.312 216.582L132.436 218.047L135.525 219.316L138.325 219.902H142.862L143.441 219.707H144.117L144.6 219.512H144.986L146.241 219.023H146.531L147.496 218.633L147.689 218.437L148.365 218.242L149.33 217.559H149.523L149.62 217.363L150.102 217.168L150.199 216.973L151.164 216.289L152.226 215.215L152.806 214.336L152.999 214.238L153.192 213.75L153.674 213.164V212.969L154.254 211.895V211.602L154.447 211.309V211.016L154.64 210.723L154.93 209.551V208.867L155.122 207.988V206.133L154.93 205.352V204.571L154.736 204.18L154.447 202.813L154.254 202.617V202.324L153.481 200.762L152.226 199.004L151.164 197.93L149.813 196.855L148.558 196.074H148.365L148.268 195.879L145.565 194.805H145.179L144.89 194.609H144.407L143.924 194.414H143.249L141.897 194.121H139.29L137.842 194.414H137.166L136.78 194.609H136.298L136.008 194.805L134.946 195ZM72.1 36.5039L72.2929 37.1875L72.5825 37.6759V37.9688L72.7757 38.1641L72.9686 38.9452L73.3548 39.7265V40.0196L74.0307 41.4843V41.7773L74.4169 42.5584L74.6098 43.3399L74.803 43.5351V43.8282L75.2856 44.8046V45.0977L75.6717 45.8788V46.1718L75.8649 46.3672V46.6601L76.0579 46.8554V47.1485L76.444 47.9296L76.5406 48.418L76.7336 48.6132V48.9063L77.6991 51.2499V51.543L77.9886 51.9336V52.2266L78.3748 53.0077V53.3008L78.7609 54.0818L78.9541 54.8634L79.1471 55.0585V55.3516L79.6298 56.328V56.6211L80.016 57.4022V57.6953L80.209 57.8906V58.1835L80.6917 59.1602L80.8849 59.9413L81.0779 60.1366L81.271 61.0156L81.464 61.211V61.5038L81.8502 62.2851L81.9468 62.7736L82.3329 63.457V63.7501L82.7191 64.5311V64.8242L83.1052 65.6053V65.8983L83.9741 67.8515V68.1446L84.3603 68.9256V69.2187L84.5532 69.4141V69.7069L85.036 70.6836V70.9765L85.4221 71.6601L85.6151 72.5391L85.8083 72.7344V73.0273L86.291 74.004V74.2968L86.484 74.4922V74.7853L87.0633 76.0548V76.3476L87.5459 77.3243V77.6172L87.7391 77.8125V78.1054L88.1252 78.8867V79.1798L88.9941 81.1329V81.4257L89.9594 83.7696V84.0625L90.1526 84.2579V84.5507L90.4421 85.0392L90.6351 85.8202L90.8283 86.0156V86.3087L91.2144 87.0898L91.4074 87.8711L91.697 88.2618V88.5547L92.0831 89.4337L91.504 89.7265H91.0212L89.4766 90.215L88.1252 90.4101L87.8357 90.6055H87.3529L86.9668 90.8009L85.6151 90.996L85.229 91.1914L83.9741 91.3868L83.2018 91.6796H82.7191L82.4295 91.875H81.9468L81.5606 92.0704H81.0779L80.6917 92.2656L79.3403 92.4609L78.9541 92.6563L77.3129 92.9492L77.0234 93.1445H76.5406L76.1545 93.3399H75.6717L75.2856 93.5351H74.803L74.4169 93.7305L73.0652 93.9259L72.6791 94.121L71.9068 94.2187L71.6172 94.4141H71.1345L70.7483 94.6095H70.2656L69.8794 94.8046H69.3969L69.0107 95H68.5278L68.1416 95.1954L66.79 95.3905L65.3422 95.879L63.9905 96.0741L63.6044 96.2695H63.3146V96.3672H63.7007L64.0869 96.5626H64.5696L65.0524 96.7578H65.5351L67.1761 97.2462L68.6244 97.4414L69.0105 97.6367H69.5896L70.8447 98.0273H71.4238L71.81 98.2227H72.2927L73.065 98.5157L74.513 98.7109L74.8992 98.9063L76.3472 99.1016L76.7334 99.2968L77.6025 99.3945L78.5678 99.1016L80.0156 98.9063L80.4019 98.7109H80.8847L81.2708 98.5157H81.7534L82.5257 98.2227H83.0084L83.3946 98.0273H83.8773L84.3601 97.8321H84.8426L85.2287 97.6367H85.7115L86.0976 97.4414L87.5456 97.246L87.9318 97.0508L88.7041 96.9531L89.1869 96.7578H89.6696L90.0558 96.5626H90.5383L90.9244 96.3672H91.4072L91.8899 96.1718H92.3727L92.7588 95.9765H93.2414L93.6275 95.7813H94.1103L95.7515 95.2928H96.3306L96.6204 95.0977H97.1995L98.4545 94.7069H99.0337L99.3234 94.5118L100.771 94.3164L101.64 94.0235L101.061 92.3633L100.868 92.1679V91.875L100.482 91.0939V90.8009L99.6128 88.8477V88.5547L99.2268 87.7736V87.4805L99.0337 87.2851V86.9921L98.6475 86.211L98.5511 85.7226L98.165 85.0392V84.7461L97.1995 82.4024V82.1093L96.9099 81.7188V81.4257L96.5238 80.6447V80.3516L96.3306 80.1562V79.8634L95.9444 79.0821L95.8481 78.5936L95.4619 77.9102V77.6172L95.0757 76.8361V76.543L94.6896 75.7617V75.4686L94.4964 75.2735L94.2068 74.2968L94.0137 74.1016V73.8086L93.6275 73.0275V72.7344L93.0484 71.2695L92.7588 70.7811V70.4884L92.3727 69.7069V69.4141L92.1795 69.2187V68.9258L91.7933 68.1446L91.6967 67.6561L91.3106 66.9727V66.6796L90.3453 64.336V64.0429L90.1523 63.8477L90.0555 63.3593L89.6696 62.5782V62.2851L89.4764 62.0898V61.7969L89.0903 61.0156L88.8973 60.2345L88.6077 59.8438V59.5507L88.2216 58.7696V58.4766L87.8354 57.6955V57.4024L87.6422 57.207L87.3527 56.2304L87.1595 56.0352V55.7421L86.1942 53.3985V53.1054L85.9047 52.7148V52.4218L85.5185 51.6407V51.3476L85.3253 51.1523V50.8594L84.9392 50.0783L84.7462 49.2968L84.4564 48.9063V48.6132L83.4911 46.2695V45.9765L83.298 45.7813L83.2016 45.2928L82.8154 44.5118V44.2187L82.6223 44.0235L82.4293 43.2422L82.1395 43.1446L80.6917 42.0704L80.2087 41.875L80.1124 41.6796L79.8226 41.582L77.8918 40.2147H77.6989L77.2161 39.7265H77.0231L73.0652 36.9923L72.1 36.5039ZM166.804 36.5039L166.418 36.6015L166.321 36.7969L165.838 36.9921L165.742 37.1875L164.101 38.1641L163.232 38.8477L161.011 40.2147L160.915 40.4101H160.722L158.984 41.6796L158.501 41.875L157.053 42.9492L156.474 43.2422V43.5351L156.281 43.7305V44.0235L155.798 45V45.2931L155.605 45.4882V45.7813L155.219 46.5624L155.026 47.3437L154.35 48.8086V49.1016L153.964 49.8827V50.1758L153.771 50.3712L153.578 51.1523L152.902 52.6172V52.9102L152.516 53.6913V53.9844L152.13 54.668V54.9608L151.647 55.9375V56.2304L151.454 56.4257V56.7188L150.199 59.7461V60.0392L149.813 60.8202V61.1133L149.62 61.3087V61.6015L149.427 61.7969V62.0898L148.944 63.0664V63.3593L148.751 63.5547V63.8477L147.496 66.875V67.1679L147.11 67.9492V68.2422L146.917 68.4374L146.724 69.2187L146.048 70.6836V70.9765L145.662 71.7578V72.0508L145.276 72.7344V73.0273L144.793 74.004V74.2968L144.6 74.4922V74.7853L143.345 77.8125V78.1054L142.959 78.8867V79.1798L142.766 79.3749V79.668L142.573 79.8634V80.1562L142.09 81.1329V81.4257L141.897 81.6211V81.914L141.511 82.6953L141.318 83.4766L140.642 84.9415V85.2343L140.256 86.0156V86.3087L139.87 86.9921V87.2851L139.387 88.2618V88.5547L139.194 88.7501V89.0429L138.808 89.8242V90.1173L138.422 90.8009V91.0937L138.132 91.5822L137.939 92.3633L137.746 92.5586V92.8515L137.263 94.0235L138.132 94.3164H138.614L139.001 94.5118H139.58L139.966 94.7069H140.449L141.704 95.0977L143.152 95.2931L143.538 95.4882H144.117L144.793 95.7813H145.276L146.531 96.1718L147.979 96.3672L148.365 96.5626H148.847L149.234 96.7578L150.585 96.9531L151.358 97.246L152.806 97.4414L153.192 97.6367H153.674L154.061 97.8321L155.509 98.0273L155.895 98.2227H156.378L157.15 98.5157H157.633L158.019 98.7109H158.501L158.887 98.9063H159.37L159.756 99.1016H160.336L161.301 99.3945L162.17 99.2968L162.556 99.1016H163.135L163.521 98.9063L164.969 98.7109L165.355 98.5157H165.838L167.479 98.0273L168.927 97.8321L169.314 97.6367H169.796L170.279 97.4414H170.762L171.148 97.246H171.727L172.499 96.9531H172.982L173.368 96.7578H173.851L174.334 96.5626L175.589 96.3672V96.2695H175.299L174.913 96.0741H174.43L172.886 95.5859H172.403L172.113 95.3905H171.63L171.244 95.1954H170.762L170.375 95H169.893L169.507 94.8046H169.024L168.638 94.6095L167.286 94.4141L166.707 94.121H166.224L165.838 93.9259H165.355L164.969 93.7305H164.487L164.101 93.5351H163.618L163.232 93.3399L161.88 93.1445L160.432 92.6561H159.949L159.563 92.4609H159.081L158.694 92.2656H158.212L157.826 92.0704H157.343L156.957 91.875L155.605 91.6796L155.316 91.4843L154.543 91.3868L154.157 91.1914H153.674L153.288 90.996H152.806L152.419 90.8009H151.937L151.55 90.6055H151.068L150.778 90.4101H150.199L149.91 90.2147H149.427L148.751 89.9219L147.399 89.7265L146.82 89.4337L147.593 87.5782V87.2851L147.786 87.0898L147.882 86.6015L148.268 85.8205V85.5274L148.461 85.332L148.654 84.453L148.847 84.2579L149.041 83.4766L149.523 82.5001V82.207L149.716 82.0117V81.7188L150.296 80.4493V80.1562L150.971 78.6913V78.3985L151.358 77.6174V77.3243L152.226 75.3712V75.0781L152.613 74.297V74.004L152.806 73.8086L152.999 72.9296L153.192 72.7344L153.481 71.7578L153.867 70.9767V70.6836L154.061 70.4882V70.1954L154.447 69.4141V69.121L155.316 67.1679V66.875L155.702 66.0939V65.8009L156.377 64.336L156.57 63.5549L156.957 62.7734V62.4805L157.15 62.2851L157.343 61.4062L157.633 61.0156V60.7226L158.212 59.453V59.1602L158.405 58.9648V58.6719L158.791 57.8906L158.887 57.4022L159.081 57.207L159.274 56.328L159.66 55.6444V55.3516L160.046 54.5705V54.2774L160.722 52.8125V52.5193L161.977 49.492V49.1989L162.363 48.4178V48.1248L162.749 47.4411V47.0506L162.942 46.8552L163.232 46.1716V45.8788L163.425 45.6834L163.618 44.8044L163.811 44.6092V44.3162L164.487 42.8513V42.5584L164.68 42.363V42.0702L165.066 41.2889V40.9958L165.452 40.2147V39.9217L165.838 39.2381L166.804 36.5039ZM62.8323 98.9065L64.0871 100.176L65.8249 101.641L66.3077 102.227L68.0452 103.692L68.4314 104.18L70.1692 105.645L70.6517 106.231L71.0379 106.426L71.424 106.914L74.5133 109.649L74.803 110.039L75.3822 110.43L75.8649 111.016L79.7264 114.434L80.209 115.02L81.7536 116.289L82.3329 116.973L84.0705 118.438L84.3603 118.828L84.7464 119.024L85.3255 119.707L86.0978 120.293L86.484 120.782L88.4148 122.442L88.7043 122.832L89.0905 123.028L89.6698 123.711L90.4421 124.297L91.697 125.567L93.4348 127.031L93.9175 127.617L95.7517 129.18L96.0412 129.571L97.779 131.035L98.0686 131.426L100.096 133.184L100.578 133.77L102.992 135.82L104.73 137.578L105.309 137.969L105.598 138.36L107.336 139.824L107.819 140.41L109.46 141.778L109.943 142.363L113.804 145.782L114.287 146.367L118.052 149.688V139.043L117.279 138.262L115.928 137.187L115.638 136.797L113.418 134.941L112.356 133.867L111.777 133.477L111.294 132.891L108.012 130.059L107.722 129.668L106.371 128.594L105.888 128.008L104.537 126.934L104.247 126.543L103.861 126.348L103.475 125.859L100.965 123.711L100.675 123.32L99.2271 122.149L98.8409 121.66L98.4548 121.465L97.1997 120.195L96.8135 120L96.3308 119.414L94.9794 118.34L94.4966 117.754L93.1452 116.68L92.759 116.191L91.4074 115.117L90.9247 114.531L89.5732 113.457L89.2837 113.066L88.7043 112.676L87.6425 111.602L87.0633 111.211L86.6772 110.723L81.6572 106.328L81.3674 105.938L79.8228 104.668L79.5332 104.277L79.1471 104.082L78.8575 103.691L78.1818 103.203L77.1197 102.129L76.6372 101.934H76.0579L75.7683 101.738H75.2856L74.803 101.543H74.3203L73.9341 101.348H73.4514L71.9068 100.859L70.5553 100.664L70.1692 100.469H69.5899L69.3003 100.273L67.9486 100.078L67.1763 99.7853H66.6938L66.3077 99.5899H65.8249L65.4388 99.3945H64.956L64.5699 99.1991H64.0871L63.701 99.004L62.8323 98.9065ZM176.071 98.9065L175.202 99.0042L174.816 99.1993H174.334L173.947 99.3947H173.465L173.078 99.5901H172.596L171.051 100.079H170.569L170.086 100.274H169.603L169.217 100.469H168.734L168.445 100.664H167.866L167.479 100.86L166.128 101.055L164.583 101.543H164.101L162.749 101.934H162.266L161.687 102.227L160.722 103.203L159.177 104.473L158.887 104.864L158.501 105.059L158.212 105.45L153.867 109.258L153.481 109.746L153.095 109.942L152.806 110.332L151.454 111.406L150.971 111.992L147.786 114.727L147.399 115.215L146.048 116.289L145.565 116.875L144.214 117.949L143.924 118.34L143.538 118.535L143.248 118.926L140.062 121.66L139.676 122.149L138.132 123.418L137.842 123.809L136.298 125.078L136.008 125.469L134.656 126.543L134.174 127.129L133.788 127.325L129.926 130.938L129.25 131.426L128.768 132.012L128.382 132.207L127.32 133.281L124.906 135.332L124.617 135.723L120.948 138.945V149.688L123.651 147.246L124.23 146.563L124.81 146.172L127.126 143.926L127.995 143.242L128.574 142.559L128.961 142.363L129.25 141.973L130.988 140.508L131.567 139.824L135.332 136.504L135.911 135.82L137.456 134.551L137.939 133.965L138.518 133.574L138.808 133.184L141.8 130.547L142.283 129.961L144.696 127.91L145.276 127.227L147.013 125.762L147.496 125.176L149.041 123.906L149.62 123.223L151.358 121.758L151.84 121.172L152.226 120.977L152.613 120.488L155.702 117.754L155.991 117.363L156.57 116.973L156.86 116.582L158.887 114.824L159.177 114.434L160.722 113.164L161.204 112.578L163.232 110.82L163.521 110.43L165.066 109.16L165.549 108.574L167.286 107.11L167.866 106.426L170.472 104.18L172.21 102.422L174.623 100.371L176.071 98.9065ZM85.1326 194.902V219.316H90.056V210.722L90.1526 210.625H99.9028L105.695 219.316H111.487L111.294 218.73L110.619 217.851L109.846 216.484L108.784 215.019L108.591 214.531L108.398 214.433L108.205 213.945L108.012 213.848L106.95 211.992L105.695 210.234L105.792 210.039H106.081L107.143 209.55L107.336 209.355H107.529L107.626 209.16H107.819L108.784 208.379L109.653 207.305L110.039 206.621L110.426 205.644V205.254L110.618 204.765L110.715 201.738L110.618 201.64V200.761L110.426 200.371V199.98L109.653 198.222L108.591 196.855L107.24 195.879H107.046L106.274 195.39H105.985L105.695 195.195H105.212L104.826 195H104.054L103.957 194.902H85.1326ZM160.625 194.902V219.316H165.645V201.933L165.742 201.836L167.093 203.496L167.479 203.789L167.672 204.18L168.734 205.254L169.121 205.84L170.182 206.914L170.569 207.5L171.148 207.988L172.21 209.355L172.692 209.746L173.658 211.015L174.141 211.406L175.202 212.773L175.782 213.262L176.844 214.629L177.23 214.922L177.423 215.312L177.809 215.605L178.871 216.972L179.257 217.265L180.995 219.316H186.497V194.902H181.477V212.285L181.381 212.383L166.128 194.902L160.625 194.902ZM132.629 202.519L133.691 201.445L134.85 200.566L136.684 199.687L138.132 199.297H138.808L139.483 199.101H141.607L142.379 199.297H143.055L143.345 199.492H143.828L145.082 199.98L145.276 200.176H145.565L146.82 200.957L148.365 202.422L149.137 203.594L149.62 204.668V204.961L149.813 205.351L150.006 207.305L149.91 207.402L149.813 208.769L149.427 210.039L148.751 211.308L147.593 212.675L145.758 213.945L144.31 214.531H143.924L143.538 214.726H142.959L142.476 214.922L140.352 215.019L140.255 214.922H138.614L136.298 214.336L135.236 213.847L133.981 213.066L132.629 211.699L132.05 210.82L131.471 209.355L131.181 208.183V205.937L131.857 203.789L132.243 203.301L132.436 202.812L132.629 202.715V202.519ZM115.928 194.902V219.316H120.948V194.902L115.928 194.902ZM144.793 169.219V184.649H147.496V174.785L147.593 174.688L156.667 184.649H158.501V169.219H155.798V178.985L155.702 179.082L151.551 174.688L149.717 172.539L148.848 171.758L146.628 169.219L144.793 169.219ZM113.804 169.219V184.649H116.507V174.883L116.604 174.785L117.859 176.055L118.245 176.641L118.631 176.934L120.755 179.375L121.334 179.864L123.265 182.11L123.844 182.598L125.485 184.551L125.678 184.649H127.416V169.219H124.81V179.18L124.713 179.278L122.686 176.934L121.914 176.25L120.176 174.2L119.403 173.516L117.666 171.465L116.894 170.782L116.7 170.391L115.542 169.219H113.804ZM80.4987 169.219V184.649H83.588V178.008L83.6843 177.91H90.8283L90.9247 178.008V184.649H94.0139V169.219H90.9247V175.371L90.8283 175.469H83.6843L83.588 175.371V169.219H80.4987ZM102.896 169.219L100.386 174.59L99.9994 175.664L99.7098 176.055L99.3237 177.129L99.1305 177.325L98.5513 178.887L98.3582 179.082L97.8754 180.352L97.4893 180.938V181.231L96.8138 182.403V182.695L96.4274 183.281V183.574L95.8483 184.649H98.8407L99.2271 183.574L99.42 183.379V183.086L99.6132 182.891L100.192 181.524H106.95L107.819 183.574L108.591 184.356L109.17 184.649H111.874L110.232 181.719L110.039 181.035L109.653 180.449V180.156L108.977 178.985L108.398 177.422L107.722 176.25V175.957L107.336 175.371V175.078L106.95 174.492L106.757 173.809L106.274 173.028L106.081 172.344L105.888 172.149L105.695 171.465L105.019 170.293V170L104.826 169.805L104.633 169.219H102.896ZM90.056 199.981L90.1526 199.883H102.799L102.895 199.981H103.571L104.73 200.567L105.405 201.348L105.695 202.52L105.598 203.789L105.406 204.278L104.633 205.059L103.571 205.547H102.702L102.606 205.645H90.1526L90.0558 205.547L90.056 199.981ZM57.8123 209.453L57.9089 209.356H71.424L71.5208 209.453H72.1963L72.6791 209.648H73.0652L74.0307 210.332L74.4169 211.211V212.676L74.2237 213.164L73.3548 213.945L71.907 214.336H57.9087L57.8123 214.238V209.453ZM57.8123 199.98L57.9089 199.883H71.7136L72.6791 200.176L73.2584 200.664L73.548 201.055V201.348L73.7409 201.738V202.519L73.3548 203.301L72.5825 204.082L71.6172 204.473H57.9089L57.8121 204.375L57.8123 199.98ZM134.56 169.219H131.567V183.965L131.278 184.649V184.942L130.216 186.016L128.671 186.114L127.802 185.82V186.699L127.995 186.992V187.285L128.478 187.969L129.25 188.36H129.83L129.926 188.457L131.76 188.36L132.822 187.871L133.691 187.09L134.367 185.723V185.332L134.56 184.942V169.219ZM138.132 169.219V184.649H141.221V169.219H138.132ZM103.571 173.711L103.861 174.492L104.15 174.883V175.176L104.344 175.371L104.537 176.055L104.73 176.25L105.116 177.422L105.406 177.813V178.106L105.888 178.985L105.792 179.18H101.351L101.254 179.082L102.123 176.836L102.316 176.641V176.348L102.606 175.957L102.799 175.273L102.992 175.078V174.785L103.571 173.711Z" fill="white"/>
</g>
<defs>
<clipPath id="clip0_10_586">
<rect width="145" height="200" fill="white" transform="translate(47 20)"/>
</clipPath>
</defs>
</svg>
