<svg width="240" height="240" viewBox="0 0 240 240" fill="none" xmlns="http://www.w3.org/2000/svg">
<g clip-path="url(#clip0_10_584)">
<path d="M76.3266 206.209C76.3266 206.209 78.867 204.263 78.4605 200.512C77.6935 196.598 74.8966 194.521 71.3847 194.671C66.82 194.682 58.7552 194.533 52.292 194.505L52.2847 218.799L72.15 218.861C72.2715 218.767 76.0772 218.754 78.0945 216.146C79.0093 214.962 79.2032 213.916 79.3271 212.279C79.4632 210.482 78.9208 208.911 78.1857 207.85C77.4479 206.783 76.5147 206.229 76.3268 206.209M57.3657 199.638L70.6974 199.669C70.6974 199.581 73.3757 200.007 73.4304 201.785C73.3509 203.893 71.2993 204.051 70.8216 204.073H57.3339L57.3657 199.638ZM71.9659 213.95L57.3958 214.075V208.935H70.7585C70.7614 208.922 71.4854 208.931 71.5567 208.94L71.5558 208.939C72.5082 209.055 74.2113 209.147 74.3162 211.597C74.3983 213.479 72.3438 213.937 71.9659 213.95ZM111.064 202.248C110.982 195.462 105.271 194.55 104.48 194.523L103.824 194.501C103.772 194.502 103.502 194.485 103.498 194.492L85.142 194.568L85.3485 218.876L90.2501 218.987L90.1133 210.346L100.035 210.35L105.957 219.115L111.724 219.097L105.882 209.633C105.903 209.652 111.142 208.664 111.064 202.248ZM102.988 205.175L90.1706 205.284L90 199.615H102.598C102.865 199.615 105.742 199.387 105.91 202.425C105.813 205.271 103.192 205.173 102.988 205.175ZM116.37 194.428H121.159V218.795H116.37V194.428ZM187.726 219.274L187.708 194.582L182.22 194.622L182.243 211.671L166.767 194.592L161.295 194.652L161.132 219.041L166.681 219.053L166.59 201.978L182.262 219.256L187.726 219.274ZM141.467 194.06C141.345 194.06 141.223 194.061 141.101 194.063C132.54 193.744 126.314 198.974 126.244 207.057C126.481 215.601 133.423 219.946 141.03 220C150.473 220.027 155.833 213.74 156.057 207.563C156.082 198.463 149.146 194.084 141.467 194.061M140.908 214.694C135.639 214.744 131.902 211.309 131.957 206.442C132.012 201.575 135.608 199.296 141.209 199.224C146.809 199.151 150.587 202.723 150.65 206.855C150.711 210.989 146.175 214.645 140.908 214.694ZM156.253 84.0128L180.83 20L120.126 58.6581L59.3193 20.1926L83.8366 83.966L47 92.0647L119.958 158.327L193 92.4532L156.253 84.0128ZM92.4771 88.5579L72.6275 36.1716L82.679 42.7598L101.953 92.9071L77.9394 98.2892L63.9007 95.1969L92.4771 88.5579ZM118.367 147.934L63.2041 97.8737L77.2029 101.029L118.48 137.676L118.367 147.934ZM118.488 133.546L110.581 126.746L110.647 70.797L90.8323 56.5216L86.4943 45.2577L118.65 66.7101L118.488 133.546ZM167.429 36.4998L147.453 88.577L176.052 95.4099L162.318 98.4281L138.12 93.0526L157.524 42.8864L167.429 36.4998ZM121.504 66.742L153.564 45.5444L149.414 56.5778L129.28 70.903L129.296 127.114L121.401 133.909L121.504 66.742ZM121.374 137.758L162.827 101.157L176.719 98.119L121.459 148.001L121.374 137.758ZM80.5573 169.183H83.6224V175.423H91.039V169.183H94.1041V184.519H91.0392V177.81H83.6224V184.519H80.5575L80.5573 169.183ZM103.186 169.183H104.87L110.394 181.099C111.283 183.015 111.908 184.068 112.286 184.538H110.451C109.297 184.538 108.502 184.106 107.859 182.621L107.348 181.418H100.385L99.0234 184.538H96.1284L103.186 169.183ZM106.307 179.088L103.848 173.431L101.388 179.088H106.307ZM114.235 169.183H115.919L125.36 179.294V169.183H128.009V184.519H126.325L116.884 174.408V184.519H114.235V169.183ZM129.03 187.658C128.576 187.206 128.368 186.436 128.368 185.703C128.803 185.91 129.409 186.004 129.995 186.004C131.395 186.004 132.171 185.102 132.171 183.222V169.183H135.236V183.523C135.236 186.436 133.722 188.278 131.111 188.278C130.279 188.278 129.541 188.146 129.03 187.658ZM138.926 169.183H141.99V184.519H138.926V169.183ZM145.68 169.183H147.364L156.805 179.294V169.183H159.454V184.519H157.77L148.329 174.408V184.519H145.68V169.183Z" fill="#03492D"/>
</g>
<defs>
<clipPath id="clip0_10_584">
<rect width="146" height="200" fill="white" transform="translate(47 20)"/>
</clipPath>
</defs>
</svg>
