<svg width="240" height="240" viewBox="0 0 240 240" fill="none" xmlns="http://www.w3.org/2000/svg">
<g clip-path="url(#clip0_10_610)">
<path d="M219.863 88.3412V131.281C219.832 131.398 219.787 131.513 219.77 131.632C219.184 135.727 215.683 138.922 211.626 139.086C209.673 139.164 207.722 139.282 205.77 139.383C198.839 139.742 191.907 140.104 184.976 140.46C178.412 140.797 171.849 141.129 165.285 141.459C160.474 141.701 155.664 141.96 150.852 142.166C146.685 142.344 142.517 142.482 138.348 142.596C134.348 142.705 130.347 142.765 126.346 142.838C125.571 142.852 125.122 142.343 125.223 141.588C125.501 139.494 125.784 137.4 126.071 135.307C126.18 134.513 126.523 134.175 127.314 134.125C132.552 133.792 137.771 133.26 142.966 132.498C144.411 132.287 145.881 132.139 147.28 131.745C150.805 130.752 153.094 127.763 153.097 124.296C153.107 114.635 153.104 104.974 153.089 95.3127C153.088 94.6323 153.022 93.9207 152.821 93.2773C151.807 90.0307 149.505 88.1579 146.302 87.6197C142.45 86.9727 138.56 86.5471 134.677 86.1016C132.233 85.8208 129.772 85.6838 127.319 85.4728C126.492 85.402 126.182 85.0894 126.067 84.2507C125.784 82.1727 125.504 80.0944 125.226 78.0158C125.124 77.2579 125.535 76.7682 126.286 76.7801C130.58 76.8499 134.875 76.864 139.165 77.0161C147.009 77.2938 154.851 77.6309 162.692 77.9867C169.272 78.2857 175.85 78.6431 182.428 78.9822C188.084 79.274 193.739 79.5766 199.395 79.8725C203.529 80.0893 207.664 80.2789 211.797 80.5248C215.389 80.7384 218.403 83.1718 219.47 86.6601C219.637 87.2087 219.734 87.7802 219.863 88.3412ZM70.5942 78.2425C79.559 77.8596 88.5227 77.4355 97.4896 77.1099C102.765 76.9182 108.045 76.8963 113.323 76.764C114.204 76.7421 114.587 77.3704 114.482 78.1018C114.184 80.1778 113.917 82.258 113.63 84.3351C113.528 85.0738 113.191 85.4015 112.444 85.465C110.297 85.6474 108.143 85.7557 106.004 86.0032C101.816 86.4871 97.6212 86.9445 93.4585 87.6062C90.3243 88.1042 88.0409 89.913 86.9523 93.0413C86.7307 93.6929 86.6173 94.3767 86.6165 95.0652C86.5963 104.914 86.5776 114.764 86.6212 124.613C86.6331 127.263 88.0067 129.228 90.1139 130.684C91.5134 131.651 93.1108 132.021 94.7637 132.226C98.046 132.631 101.323 133.094 104.609 133.462C106.979 133.727 109.362 133.878 111.738 134.079C112.014 134.102 112.292 134.107 112.567 134.141C113.162 134.214 113.529 134.55 113.614 135.153C113.913 137.293 114.207 139.432 114.481 141.574C114.584 142.381 114.142 142.856 113.329 142.837C107.236 142.695 101.142 142.578 95.0502 142.388C90.2512 142.237 85.4533 142.021 80.6574 141.787C72.4481 141.386 64.2409 140.947 56.032 140.526C50.1295 140.223 44.2269 139.926 38.3243 139.622C34.8352 139.443 31.3429 139.312 27.859 139.059C22.7139 138.685 19.8424 134.204 19.8637 130.37C19.9227 119.769 19.8839 109.168 19.8839 98.5666C19.8839 95.4976 19.9569 92.4261 19.8662 89.3597C19.7403 85.1076 23.0694 80.778 27.9906 80.5133C32.017 80.2966 36.044 80.0924 40.0709 79.8814C44.6357 79.6423 49.1999 79.3974 53.7647 79.162C59.3751 78.8728 64.9865 78.5915 70.5968 78.3071C70.5957 78.2855 70.5948 78.264 70.5942 78.2425ZM124.648 162.173C124.648 162.285 124.682 162.35 124.746 162.35C124.796 162.342 124.843 162.322 124.883 162.291L142.785 150.372C143.086 150.155 143.449 150.044 143.819 150.053H147.753C148.356 150.053 148.764 150.466 148.764 151.084V158.791C148.764 159.722 148.563 160.264 147.758 160.759L142.986 163.705C142.939 163.738 142.883 163.759 142.825 163.763C142.768 163.763 142.71 163.716 142.71 163.545V154.555C142.71 154.449 142.682 154.378 142.613 154.378C142.562 154.385 142.515 154.405 142.475 154.437L129.392 163.157C129.098 163.364 128.746 163.473 128.387 163.469H119.715C119.106 163.469 118.704 163.057 118.704 162.432V151.326C118.704 151.244 118.67 151.167 118.6 151.167C118.55 151.174 118.502 151.194 118.463 151.226L109.83 156.54C109.744 156.599 109.722 156.64 109.722 156.682C109.722 156.717 109.739 156.752 109.796 156.817L115.965 163.139C116.045 163.221 116.103 163.286 116.103 163.357C116.103 163.415 116.011 163.463 115.901 163.463H110.33C109.894 163.463 109.555 163.398 109.32 163.157L105.581 159.327C105.567 159.31 105.549 159.296 105.53 159.286C105.51 159.275 105.488 159.269 105.466 159.268C105.426 159.27 105.386 159.282 105.351 159.304L99.103 163.157C98.7238 163.393 98.4657 163.458 98.0922 163.458H92.3434C91.7289 163.463 91.3269 163.045 91.3269 162.427V154.868C91.3269 153.931 91.5279 153.394 92.3377 152.899L97.1393 149.942C97.1767 149.916 97.2206 149.902 97.2657 149.901C97.3403 149.901 97.3808 149.977 97.3808 150.148V160.27C97.3808 160.377 97.4036 160.424 97.4782 160.424C97.5299 160.415 97.5791 160.395 97.6217 160.365L113.84 150.355C114.153 150.137 114.529 150.03 114.909 150.048H123.638C124.241 150.048 124.649 150.461 124.649 151.079L124.643 162.173H124.648V162.173Z" fill="white"/>
</g>
<defs>
<clipPath id="clip0_10_610">
<rect width="200" height="87" fill="white" transform="translate(20 77)"/>
</clipPath>
</defs>
</svg>
