<svg width="240" height="240" viewBox="0 0 240 240" fill="none" xmlns="http://www.w3.org/2000/svg">
<g clip-path="url(#clip0_10_606)">
<path d="M72.518 183.809C72.518 182.283 72.2137 181.104 71.5466 179.766H79.0766C79.1634 179.766 79.2409 179.829 79.2409 179.892V219.246C79.2409 219.246 79.1634 219.348 79.0766 219.348H72.6874C72.5857 219.348 72.523 219.299 72.523 219.246V183.809H72.518Z" fill="white"/>
<path d="M48.6867 182.22V186.992H59.938C60.6823 186.992 60.6194 187.61 60.6194 187.832C60.6194 189.817 60.3971 191.677 60.025 193.396H48.3773V198.168H58.4639C54.6118 206.833 47.0046 210.973 47.0046 210.973L52.0696 214.271C66.0564 205.558 67.2984 193.73 67.2984 184.794V182.215H48.6915L48.6867 182.22Z" fill="white"/>
<path d="M107.775 213.991H93.6481V209.827H107.775V213.991ZM118.34 197.115H83.3392C83.2377 197.115 83.1653 197.163 83.1653 197.226V201.665C83.1653 201.665 83.2425 201.761 83.3392 201.761H96.978V205.244H86.2246C86.9205 206.606 87.2202 207.808 87.2202 209.344V218.415C87.2202 218.415 87.3071 218.526 87.3941 218.526H114.203C114.304 218.526 114.377 218.478 114.377 218.415V205.34C114.377 205.34 114.29 205.229 114.203 205.229H104.59V201.747H118.34C118.427 201.747 118.514 201.698 118.514 201.65V197.211C118.514 197.211 118.442 197.1 118.34 197.1V197.115Z" fill="white"/>
<path d="M160.638 185.378V180.843C160.638 180.843 160.687 180.746 160.75 180.746H179.98C180.043 180.746 180.091 180.795 180.091 180.843C180.091 180.891 179.942 186.48 178.724 192.382V192.445L178.675 192.681H183.542C183.542 192.681 183.653 192.729 183.653 192.783V197.265C183.653 197.265 183.605 197.366 183.542 197.366H171.522V204.693C171.522 204.693 171.474 204.795 171.411 204.795H165.041C165.041 204.795 164.93 204.756 164.93 204.693V197.366H158.56C158.56 197.366 158.449 197.328 158.449 197.265V192.783C158.449 192.783 158.497 192.681 158.56 192.681H172.194L172.257 192.483C172.446 191.86 173.05 189.551 173.287 185.813L173.301 185.465H160.75C160.75 185.465 160.638 185.417 160.638 185.364V185.378Z" fill="white"/>
<path d="M165.269 218.416V211.156C165.269 209.63 164.993 208.432 164.336 207.075H171.697C171.784 207.075 171.856 207.123 171.856 207.2V213.866H191.831C191.918 213.866 191.991 213.928 191.991 213.991V218.401C191.991 218.473 191.918 218.527 191.831 218.527H165.419C165.332 218.527 165.259 218.464 165.259 218.401L165.274 218.416H165.269Z" fill="white"/>
<path d="M191.667 179.766C191.754 179.766 191.826 179.829 191.826 179.877V208.616C191.826 208.616 191.754 208.717 191.667 208.717H185.538C185.437 208.717 185.374 208.669 185.374 208.616V204.225H176.278C176.191 204.225 176.119 204.162 176.119 204.1V199.685C176.119 199.622 176.191 199.559 176.278 199.559H185.374V183.823C185.374 182.292 185.074 181.114 184.417 179.766H191.667Z" fill="white"/>
<path d="M100.757 182.997C97.7514 182.997 95.3202 184.775 95.3202 186.958C95.3202 189.141 97.7514 190.918 100.757 190.918C103.764 190.918 106.195 189.141 106.195 186.958C106.195 184.775 103.764 182.997 100.757 182.997ZM113.604 186.963C113.604 191.754 107.843 195.632 100.757 195.632C93.6722 195.632 87.9114 191.744 87.9114 186.963C87.9114 182.181 93.6578 178.293 100.757 178.293C107.857 178.293 113.604 182.166 113.604 186.963Z" fill="white"/>
<path d="M124.319 185.335V180.833C124.319 180.833 124.357 180.746 124.406 180.746H153.206C153.206 180.746 153.293 180.785 153.293 180.833V185.335C153.293 185.335 153.254 185.422 153.206 185.422H142.95L143.559 185.977C147.517 189.58 154.859 191.43 155.69 191.628C155.753 191.652 155.815 191.691 155.825 191.701L155.748 191.86C155.748 191.86 152.573 195.178 152.423 195.463C152.423 195.463 152.408 195.463 152.263 195.439C151.939 195.367 144.081 193.454 139.04 189.677L138.803 189.503L138.567 189.677C133.574 193.401 125.643 195.352 125.309 195.439C125.208 195.454 125.198 195.454 125.135 195.391C125.111 195.343 125.01 195.183 121.81 191.788C121.835 191.812 121.786 191.701 121.786 191.701C121.786 191.677 121.859 191.638 121.912 191.628C122.743 191.43 130.104 189.556 134.043 185.977L134.661 185.422H124.406C124.406 185.422 124.319 185.383 124.319 185.335Z" fill="white"/>
<path d="M155.989 201.679C156.076 201.679 156.149 201.626 156.149 201.578V197.048C156.149 197.048 156.076 196.932 155.989 196.932H121.631C121.53 196.932 121.458 196.994 121.458 197.048V201.578C121.458 201.578 121.53 201.679 121.631 201.679H155.989Z" fill="white"/>
<path d="M138.803 207.515C135.744 207.515 133.269 209.258 133.269 211.412C133.269 213.567 135.744 215.31 138.803 215.31C141.863 215.31 144.337 213.567 144.337 211.412C144.337 209.258 141.863 207.515 138.803 207.515ZM151.732 211.412C151.732 216.151 145.937 220 138.803 220C131.67 220 125.875 216.151 125.875 211.412C125.875 206.674 131.67 202.825 138.803 202.825C145.937 202.825 151.732 206.674 151.732 211.412Z" fill="white"/>
<path d="M132.665 20L125.193 27.4672H140.596L125.196 42.8554L102.333 20.0046H47.0046V75.5882L69.7209 98.2902L47 120.995V131.534L74.9926 103.559L79.3874 107.951L47.0048 140.315V150.849L84.6601 113.22L89.0511 117.608L47 159.634V164.904H52.2729L94.3248 122.879L98.7138 127.265L61.0549 164.899H71.5903L103.983 132.53L108.375 136.92L80.377 164.899H90.9229L113.648 142.189L136.368 164.894H191.991V109.611L169.121 86.754L184.518 71.3668V86.755L191.99 79.2878V20H132.665ZM170.479 27.462H179.251L144.522 62.17L140.135 57.7848L170.479 27.462ZM151.137 27.4626H159.924L134.859 52.512L130.465 48.1208L151.137 27.4626ZM184.518 32.7414V41.5174L154.187 71.8292L149.797 67.4416L184.518 32.7414ZM184.518 52.0514V60.8278L163.848 81.4844L159.456 77.0954L184.518 52.0514Z" fill="white"/>
</g>
<defs>
<clipPath id="clip0_10_606">
<rect width="145" height="200" fill="white" transform="translate(47 20)"/>
</clipPath>
</defs>
</svg>
