<svg width="240" height="240" viewBox="0 0 240 240" fill="none" xmlns="http://www.w3.org/2000/svg">
<g clip-path="url(#clip0_10_542)">
<path d="M177.518 50.8629C181.826 54.3473 185.771 58.266 189.248 62.5785C192.719 67.3521 196.117 71.7252 198.963 76.9585C223.91 122.828 204.751 179.92 157.661 201.651C105.66 225.647 44.5345 195.182 32.184 139.754C17.8522 75.4351 75.164 18.1898 139.567 32.3247C154.566 35.6168 165.414 41.8759 177.518 50.8629Z" fill="#FFD200"/>
<path d="M175.332 53.4788C179.469 56.8314 183.257 60.6019 186.597 64.7513C189.93 69.3443 193.193 73.5522 195.926 78.5874C219.881 122.722 201.484 177.655 156.264 198.564C106.33 221.653 47.6337 192.34 35.774 139.008C22.0118 77.1218 77.0461 22.0414 138.89 35.6417C153.293 38.8093 163.709 44.8316 175.332 53.4788Z" fill="black"/>
<path d="M167.667 70.0708C167.667 70.0708 167.634 113.497 167.517 135.081C167.244 140.189 166.514 145.321 164.604 150.1C162.026 157.871 153.821 167.111 147.62 172.379C140.231 178.657 132.709 182.618 123.779 186.275C122.539 186.782 120.106 187.49 120.106 187.49L118.466 179.405L120.017 163.849L120.794 163.845C121.127 168.337 123.033 175.617 124.355 177.823C124.355 177.823 139.315 170.898 140.091 170.48C151.478 165.39 159.947 155.184 162.816 148.489C164.311 144.998 164.866 139.601 165.132 135.167C165.213 114.346 165.331 71.8103 165.331 71.8103L166.113 70.4356L167.667 70.0708Z" fill="#FDB82C"/>
<path d="M80.6764 171.023C53.1781 149.832 47.3026 111.23 67.189 82.5876C67.5897 82.0104 69.1464 79.7459 69.6275 79.1611C69.5846 80.1953 69.6095 82.2306 69.6095 82.2306C69.6095 82.2306 67.4257 85.3903 66.9029 86.2377C46.5518 118.75 60.2126 159.404 90.5122 175.337C94.9448 177.668 97.1364 179.067 101.7 182.063C93.8346 179.125 87.2295 176.039 80.6764 171.023Z" fill="#F9D20A"/>
<path d="M65.0766 167.993C66.6034 171.057 68.861 170.672 71.1568 173.537C69.9771 173.144 67.833 173.209 66.7659 172.878C66.3207 172.741 65.1235 171.46 64.5688 170.984C62.9871 169.628 63.3815 165.589 64.4731 165.623C64.4776 166.728 64.7825 167.352 65.0766 167.993Z" fill="#F6B632"/>
<path d="M63.8938 174.3C63.5464 173.966 65.7552 174.24 66.2024 174.427C67.2207 174.851 67.6128 175.024 67.6128 175.024C69.0614 174.102 74.3002 175.009 75.6738 177.16C76.7607 178.192 77.921 179.688 79.3325 180.432C79.8954 180.729 82.9601 180.786 82.9601 180.786C82.9601 180.786 81.8794 182.369 80.273 182.372C76.9488 182.558 75.3523 179.552 72.7212 178.706C72.497 178.634 71.3673 178.25 71.2691 178.172C73.1382 180.194 75.2093 182.625 74.842 182.952C75.3196 182.976 71.341 180.094 69.8384 179.891C66.5037 178.651 67.4215 177.087 63.8938 174.3Z" fill="#FCD307"/>
<path d="M175.51 168.066C173.999 171.13 171.765 170.745 169.493 173.61C170.66 173.217 172.782 173.282 173.838 172.951C174.279 172.814 175.464 171.533 176.013 171.057C177.578 169.701 177.188 165.662 176.107 165.696C176.103 166.801 175.801 167.425 175.51 168.066Z" fill="#F6B632"/>
<path d="M176.554 174.121C176.898 173.786 174.712 174.06 174.27 174.247C173.262 174.671 172.874 174.844 172.874 174.844C171.44 173.922 166.255 174.829 164.896 176.98C163.82 178.012 162.672 179.508 161.275 180.252C160.718 180.549 157.685 180.606 157.685 180.606C157.685 180.606 158.754 182.189 160.344 182.192C163.634 182.378 165.214 179.372 167.818 178.526C168.04 178.454 169.158 178.07 169.255 177.992C167.406 180.014 165.356 182.445 165.719 182.772C165.246 182.796 169.184 179.914 170.671 179.711C173.971 178.471 173.063 176.908 176.554 174.121Z" fill="#FCD307"/>
<path d="M159.15 171.25C186.938 150.3 192.965 111.958 173.254 82.5567C172.857 81.9641 171.233 79.6951 170.736 79.1064C170.781 80.1478 170.755 82.1972 170.755 82.1972C170.755 82.1972 173.009 85.3789 173.549 86.2321C193.762 118.19 180.202 159.699 148.994 175.817C144.425 178.177 144.301 178.633 139.589 181.651C147.71 178.691 152.384 176.3 159.15 171.25Z" fill="#F9D20A"/>
<path d="M46.734 150.499L45.9841 148.502L53.702 145.426L54.4196 147.392L46.734 150.499Z" fill="#FCFCFC"/>
<path d="M42.1069 134.787L50.1511 132.928L50.579 135.007L45.9848 139.701L51.3082 138.57L51.6788 140.251L43.7035 142.062L43.2347 139.917L47.222 135.591L42.4794 136.571L42.1069 134.787Z" fill="#FCFBFC"/>
<path d="M40.6582 121.896L42.4777 121.9L42.5575 124.23L48.8353 123.926L49.015 125.927L42.6388 126.305C42.5845 126.803 42.5172 128.591 42.5172 128.591L40.7841 128.626L40.6582 121.896Z" fill="#FCFBFC"/>
<path d="M40.7622 116.335L48.9377 116.746L49.3543 111.002L47.5802 110.807L47.2735 114.754L45.6103 114.621L45.9019 111.202L44.216 111.117L43.9567 114.566L42.5249 114.468L42.8072 110.961L41.0469 110.855L40.7622 116.335ZM42.3332 104.101L50.3865 105.887L50.7606 103.902L47.3427 102.984L51.2013 101.555L51.6828 99.3321L48.0106 100.494C48.0106 100.494 47.8048 99.8247 47.6297 99.5439C47.1255 98.7344 46.5569 98.3759 45.6026 98.3911C42.8016 98.4358 42.3332 104.101 42.3332 104.101ZM44.2866 102.388C44.2866 102.388 44.3596 100.441 45.5189 100.616C46.757 100.802 46.1236 102.807 46.1236 102.807L44.2866 102.388Z" fill="white"/>
<path d="M80.7097 51.0168C80.6482 51.0168 80.5862 51.0182 80.5237 51.0209C79.5675 51.0617 78.3609 51.6314 77.6205 52.2306C73.1069 55.8836 78.4387 62.6156 83.233 58.9207C86.6281 56.3043 84.5922 51.0186 80.7097 51.0168ZM80.3113 53.0381C82.0296 53.0857 83.6526 55.0842 82.5031 56.9375C80.6006 60.004 76.3483 56.0318 78.66 53.7186C79.155 53.2233 79.7384 53.0222 80.3113 53.0381Z" fill="#FCFBFC"/>
<path d="M168.14 57.3895C167.898 57.3942 167.657 57.4171 167.419 57.458C166.35 57.6423 164.927 58.9089 164.458 59.8635C162.106 64.6462 169.125 68.9155 172.192 64.5609C174.482 61.3096 171.702 57.3233 168.14 57.3895ZM168.735 59.3767C169.358 59.3813 169.989 59.6696 170.507 60.3663C172.275 62.7435 168.656 65.8458 166.634 63.6156C165.079 61.8999 166.869 59.3625 168.735 59.3767Z" fill="white"/>
<path d="M134.714 189.474C134.528 189.473 134.337 189.487 134.14 189.517C131.483 189.925 130.397 192.819 133.116 194.036C132.458 194.386 132.01 195.175 132.078 195.953C132.421 199.861 139.474 198.243 138.082 194.611C137.816 193.915 137.285 193.411 136.512 193.408H136.511C138.223 191.593 136.902 189.489 134.714 189.474ZM135.384 191.702C135.466 192.136 135.179 192.65 134.673 192.712C134.171 192.773 133.744 192.34 133.71 191.904C133.676 191.47 133.961 191.092 134.456 190.989C134.952 190.886 135.294 191.228 135.384 191.702ZM136.104 195.142C136.196 195.589 135.968 196.289 135.356 196.388C134.8 196.478 134.225 196.336 134.062 195.58C133.896 194.805 134.482 194.464 135.06 194.399C135.588 194.339 135.995 194.615 136.104 195.142ZM106.258 189.542C104.236 189.458 103.222 191.767 103.222 191.767L105.086 192.294C105.086 192.294 105.789 190.877 106.883 191.662C107.624 192.195 107.008 192.773 106.282 193.29C104.866 194.3 102.396 195.841 102.396 195.841L102.264 197.399L108.125 198.473L108.53 196.592L105.433 196.023C105.433 196.023 107.534 195.202 108.517 194.003C109.391 192.936 109.354 192.071 109.136 191.371C108.765 190.178 107.574 189.596 106.258 189.542ZM115.823 190.647L115.218 190.694C111.726 191.254 111.206 198.083 114.216 199.238C119.52 201.272 120.553 190.701 115.823 190.647ZM115.619 192.428C117.283 192.332 116.909 197.564 115.411 197.533C113.901 197.502 114.072 192.517 115.619 192.428Z" fill="white"/>
<path d="M126.341 190.714L126.877 198.946L124.911 199.125L124.551 193.221L123.031 194.276L122.061 192.977L124.56 190.813L126.341 190.714Z" fill="#FDFCFD"/>
<path d="M48.6853 84.4587L56.3648 87.4916L55.5392 89.4471L49.095 90.7071L54.1211 92.7952L53.4739 94.3903L45.8779 91.3576L46.7072 89.3248L52.4429 88.0239L47.981 86.1403L48.6853 84.4587Z" fill="#FCFBFC"/>
<path d="M54.8562 74.4795L53.6594 76.0839L58.6312 83.3942L59.8662 81.5865L58.7932 80.2306L60.4776 77.7106L62.1236 78.1353L63.5244 76.1609L54.8562 74.4795ZM56.5172 76.7859L58.7094 77.2362L57.7299 78.6684L56.5172 76.7859Z" fill="white"/>
<path d="M63.9467 63.2905L65.2443 64.567L63.6731 66.2879L68.4624 70.5081L67.283 72.1524L62.2811 67.8278C61.894 68.1461 60.732 69.5099 60.732 69.5099L59.333 68.1892L63.9467 63.2905Z" fill="#FCFBFC"/>
<path d="M67.7812 59.5682L69.4262 58.2104L74.8369 64.5185L73.2113 65.8354L67.7812 59.5682Z" fill="#FCFCFC"/>
<path d="M95.6787 43.9133L98.6898 51.6058L96.6968 52.3326L91.3858 48.469L93.2811 53.574L91.6731 54.1861L88.7188 46.5548L90.7711 45.7779L95.6295 49.0945L93.9688 44.5423L95.6787 43.9133Z" fill="#FCFBFC"/>
<path d="M107.163 41.4873L105.176 41.7217L103.295 50.3618L105.455 50.0148L105.7 48.3028L108.687 47.7927L109.511 49.2803L111.907 48.9393L107.163 41.4873ZM106.633 44.2802L107.814 46.1822L106.102 46.4559L106.633 44.2802Z" fill="white"/>
<path d="M118.33 40.0195L118.508 46.4618H121.727V48.2511H116.542L116.362 40.0195H118.33Z" fill="#FCFCFC"/>
<path d="M134.029 41.335L132.499 49.3824L138.128 50.5841L138.564 48.8521L134.7 48.0065L135.06 46.3761L138.404 47.1347L138.719 45.4752L135.341 44.7444L135.635 43.3388L139.067 44.1001L139.414 42.3699L134.029 41.335Z" fill="white"/>
<path d="M149.377 48.1123C148.829 47.4691 148.041 46.337 147.257 46.931C146.407 47.5752 148.473 49.1245 148.79 49.4915C149.924 50.9336 148.887 53.2035 146.933 53.4671C145.762 53.6249 143.528 52.7088 142.719 50.985L144.308 50.1143C144.308 50.1143 144.973 51.0031 145.518 51.2223C146.264 51.5223 147.118 51.7297 147.14 50.9118C147.168 49.8579 143.842 49.017 144.749 46.5811C145.811 43.7289 149.807 44.3989 150.941 47.1132" fill="#FCFBFC"/>
<path d="M156.976 49.1531L153.049 56.2944L154.792 57.2785L156.254 54.7882C156.254 54.7882 159.731 57.1583 161.339 54.6188C163.402 51.3605 156.976 49.1531 156.976 49.1531ZM158.003 51.5462C158.003 51.5462 160.068 52.2326 159.405 53.3615C158.741 54.4903 157.206 53.0664 157.206 53.0664L158.003 51.5462ZM179.355 66.5436L173.011 71.8191L174.349 73.331L177.168 71.19L175.933 75.1171L177.394 76.8598L178.726 73.2437C178.726 73.2437 179.381 73.4908 179.71 73.5246C180.658 73.6214 181.289 73.3917 181.862 72.6275C183.543 70.3848 179.355 66.5436 179.355 66.5436ZM179.511 69.138C179.511 69.138 181.004 70.3884 180.156 71.1986C179.251 72.0635 178.055 70.3343 178.055 70.3343L179.511 69.138Z" fill="white"/>
<path d="M188.641 82.5399L187.343 80.4544L181.882 83.8792L180.802 82.1404L186.331 78.7519L185.153 76.7006L186.83 75.7366L190.283 81.5397L188.641 82.5399ZM192.38 92.121C192.496 91.2841 192.815 89.9418 191.85 89.7521C190.804 89.5466 191.024 92.1208 190.961 92.601C190.641 94.408 188.259 95.1454 186.761 93.8625C185.864 93.0936 185.059 90.8153 185.805 89.0633L187.513 89.67C187.513 89.67 187.293 90.7582 187.492 91.311C187.766 92.0684 188.18 92.844 188.804 92.3153C189.608 91.6341 188.021 88.5918 190.44 87.6467C193.274 86.54 195.436 89.9697 194.167 92.6234" fill="#FCFBFC"/>
<path d="M192.506 113.328L193.728 112.046C193.217 111.083 193.006 110.186 193.099 109.358C193.219 108.301 193.864 107.591 194.983 107.474C196.173 107.351 196.705 107.69 197.223 108.9C197.693 109.997 197.179 111.249 197.179 111.249L198.832 112.602C199.399 111.838 200.011 108.406 198.272 106.606C197.475 105.781 196.402 104.971 194.509 105.263C192.368 105.593 191.278 107.022 190.92 108.105C190.079 110.648 191.413 112.15 192.506 113.328Z" fill="white"/>
<path d="M191.593 118.419L199.724 118.533L199.723 120.502H193.286L193.317 123.676L191.561 123.671L191.593 118.419Z" fill="#FCFCFC"/>
<path d="M193.72 128.717C191.969 128.729 190.751 129.02 190.237 131.543C189.761 133.884 190.713 134.836 192.041 135.319C194.3 136.142 198.182 136.334 198.182 136.334L198.31 134.429L193.151 133.512C193.151 133.512 191.872 133.199 192.165 131.624C192.413 130.295 193.227 130.499 193.822 130.568C195.408 130.751 198.945 131.438 198.945 131.438L199.244 129.627C199.244 129.627 195.365 128.706 193.72 128.717ZM188.705 140.414C188.114 141.479 185.94 146.295 188.927 147.6C190.226 148.167 191.006 146.59 191.006 146.59C191.006 146.59 190.94 148.089 192.962 148.327C195.411 148.616 196.407 143.053 196.357 143.041L188.705 140.414ZM189.55 142.875L191.09 143.414C190.831 145.098 190.057 145.391 189.572 145.212C189.101 145.037 188.904 144.435 189.55 142.875M192.747 143.971L193.995 144.377C193.661 146.024 193.161 146.289 192.776 146.008C192.447 145.769 192.14 145.208 192.747 143.971Z" fill="white"/>
<path d="M76.2749 145.09L76.0734 145.205C75.1717 142 74.9643 138.655 74.6582 135.346L74.6532 72.6938C74.555 72.408 74.7887 72.2363 74.8443 72.0874L74.837 132.304C75.1199 136.57 75.1699 140.915 76.2748 145.09L76.2749 145.09Z" fill="#EDD64D"/>
<path d="M146.806 61.0338C137.292 58.7537 129.126 56.9485 119.851 57.0546C110.896 57.1572 103.976 58.9534 93.1624 61.0841C102.542 56.0705 115.744 54.932 119.822 55.0047C129.033 55.1689 139.249 56.8727 146.805 61.0338" fill="#F9D10A"/>
<path d="M135.147 95.5952C135.147 94.6771 134.581 94.0105 133.487 94.0042C132.069 93.996 129.78 94.0081 129.78 94.0081L129.743 104.434H127.003V91.4615C127.003 91.4615 133.353 91.4212 135.135 91.43C136.413 91.4362 138.5 93.1877 138.47 95.5626C138.427 98.9914 134.884 99.3836 134.884 99.3836L139.709 104.434H136.043C135.807 104.434 131.45 99.3665 131.45 99.3665L131.472 97.4462C131.472 97.4462 132.552 97.4185 133.46 97.4069C134.424 97.3947 135.147 96.7591 135.147 95.5952Z" fill="#FBD008"/>
<path d="M155.761 104.56H152.498L148.846 99.666H147.999L144.805 104.497H141.318L145.832 97.6707L141.799 91.4614H145.213L148.597 96.3304L151.885 91.4614H155.399L151.205 97.6745L155.761 104.56Z" fill="#FCD306"/>
<path d="M108.87 104.434L115.178 91.4614H118.464L124.626 104.434H121.391L120.229 101.894H114.507L115.701 99.4523H119.009L116.724 94.1384L112.02 104.434L108.87 104.434Z" fill="#FCD105"/>
<path d="M87.7538 99.066V104.434H84.7141V91.5564H94.5483V94.0036H87.7538V96.3821H94.3248V99.066H87.7538Z" fill="#FCD105"/>
<path d="M100.091 101.929H106.97V104.434L97.0776 104.402V95.3014L100.044 95.2971L100.09 96.5831L106.717 96.5385L106.748 99.0779L100.091 99.0918" fill="#FBD204"/>
<path d="M97.0776 91.5249H107.033V93.9873H97.0776V91.5249Z" fill="#F7CF0C"/>
<path d="M99.5006 136.364C99.1189 137.826 99.3905 138.809 100.007 137.731C101.095 135.832 104.042 131.636 108.81 130.193L113.075 128.834C114.786 128.52 116.266 128.072 117.117 126.541C118.365 124.108 119.935 120.47 120.015 115.362C120.057 112.777 120.1 112.136 118.421 112.99C114.197 115.141 110.51 117.582 107.751 120.624C100.7 128.399 100.733 132.524 99.4995 136.364H99.5006Z" fill="#FFD200"/>
<path d="M144.411 111.068C142.811 111.068 139.42 112.639 136.258 114.34C133.499 115.825 130.695 117.695 128.477 119.294C123.845 122.451 120.753 125.277 117.824 127.938C116.381 129.071 116.067 130.246 112.122 131.069C109.19 131.681 105.691 132.84 103.771 134.877C101.95 136.807 101.209 137.941 99.9967 139.981C98.5254 142.452 97.995 145.408 97.4539 147.454C97.1802 149.44 96.5632 151.026 94.0183 153.213C92.9223 154.155 91.945 155.191 93.4676 156.641C94.9946 158.096 95.8725 159.751 101.22 160.43C103.701 160.745 107.314 158.879 110.523 157.797C112.729 156.888 114.959 155.953 117.623 155.888C121.582 155.827 125.292 156.345 129.734 155.506C130.654 155.331 131.281 154.7 130.124 154.008C128.705 153.161 127.402 152.136 126.247 150.958C126.193 150.661 126.445 150.499 126.856 150.576C126.952 150.594 130.846 150.81 134.028 149.588C134.808 149.288 134.471 148.741 134.092 148.416L130.387 146.631C129.107 145.603 129.014 144.06 129.241 143.878C134.85 138.617 136.597 137.484 140.142 132.345C142.12 129.474 145.898 123.232 146.998 117.886C147.962 113.364 147.924 111.226 144.411 111.068ZM144.193 113.725C144.581 113.74 144.472 114.161 144.436 114.522C144.177 116.927 142.964 119.978 142.346 122.264C140.814 125.647 139.266 128.556 137.512 131.228C136.312 133.055 134.817 134.649 133.141 136.287C130.522 138.626 126.608 141.469 126.041 143.065C125.724 143.965 126.312 144.356 126.284 145.176L124.185 144.804C122.128 144.328 119.875 144.975 118.457 145.61C117.684 145.956 117.594 146.155 118.18 146.32C120.658 147.235 123.216 148.904 123.679 150.249C123.679 150.249 119.995 150.851 118.509 151.319C116.195 152.051 112.652 154.419 112.532 154.358C113.182 153.663 113.8 152.936 114.585 152.374C116.375 151.089 117.387 150.267 119.782 149.616C119.972 149.565 120.331 149.525 119.748 149.019C117.59 147.381 116.161 147.348 114.636 147.105C114.39 147.038 113.953 146.91 114.13 146.703C115.782 145.492 117.637 143.947 122.245 142.875C122.667 142.765 123.017 142.876 123.125 142.766C123.67 141.967 123.839 141.23 124.769 140.307C126.348 138.741 129.3 136.608 131.134 134.685C134.542 131.117 137.1 125.823 137.716 122.09C137.801 121.562 137.979 120.394 136.425 121.035C130.637 123.403 125.405 127.056 122.435 131.068L122.258 130.927L123.496 128.994L124.592 127.519C126.205 125.349 128.453 123.159 130.726 121.409C134.789 118.276 140.421 115.297 143.617 113.863C143.878 113.76 144.063 113.72 144.193 113.725ZM109.339 141.327C110.088 141.328 109.631 142.314 109.668 142.906C108.881 146.068 107.258 147.378 105.584 148.036C103.204 148.974 102.746 148.551 101.411 148.897C99.8609 149.316 99.7754 150.176 99.4482 150.389C99.5401 149.737 99.7668 149.175 99.9967 148.615C100.538 147.297 101.397 145.979 103.444 144.329C104.802 143.235 106.318 142.366 108.608 141.502C108.928 141.379 109.166 141.327 109.339 141.327Z" fill="#FFD200"/>
<path d="M138.924 77.6693H140.018C140.089 77.6693 140.148 77.6123 140.148 77.5415V75.5016C140.148 75.4307 140.089 75.3736 140.018 75.3736H138.482C136.706 75.3736 135.764 75.9347 135.226 77.1292L131.885 85.2236C131.682 85.7062 131.391 85.936 130.815 85.936V75.5016C130.815 75.4307 130.757 75.3736 130.686 75.3736H128.231C128.16 75.3736 128.102 75.4307 128.102 75.5016V88.0055C128.102 88.1298 128.204 88.2312 128.33 88.2312H131.083C132.859 88.2312 133.67 87.6695 134.208 86.4758L137.505 78.4837C137.77 77.9171 138.151 77.6693 138.924 77.6693Z" fill="#D31F28"/>
<path d="M106.066 85.9904H101.915V82.9754H106.066C107.184 82.9754 107.94 83.6505 107.94 84.4834C107.94 85.3159 107.184 85.9904 106.066 85.9904ZM108.925 81.8019C109.91 81.3976 110.726 80.4873 110.726 78.981C110.726 76.7351 108.778 75.3731 106.43 75.3731H99.1732C99.1018 75.3731 99.0437 75.4301 99.0437 75.5009V77.541C99.0437 77.6117 99.1018 77.6688 99.1732 77.6688H105.926C107.016 77.6688 107.753 78.3261 107.753 79.1382C107.753 79.9494 107.016 80.6078 105.926 80.6078H101.915V79.0929C101.915 79.0226 101.857 78.9649 101.786 78.9649H99.1732C99.1025 78.9649 99.0437 79.0226 99.0437 79.0929V88.1031C99.0437 88.1737 99.1018 88.2305 99.1732 88.2305H106.325C108.998 88.2305 110.912 86.9969 110.912 84.4834C110.912 83.2477 110.176 82.2255 108.925 81.8019Z" fill="#D31F28"/>
<path d="M141.465 88.0841L137.257 82.7603C137.244 82.7438 137.226 82.7472 137.219 82.7644L136.086 85.5049C136.08 85.5224 136.08 85.5404 136.091 85.5567L137.931 87.9949C138.061 88.1658 138.209 88.2312 138.429 88.2312H141.394C141.48 88.2312 141.516 88.1499 141.465 88.0841Z" fill="#D31F28"/>
<path d="M115.521 78.9652H113.064C112.992 78.9652 112.934 79.0229 112.934 79.093V88.1034C112.934 88.1737 112.992 88.2307 113.064 88.2307H115.521C115.592 88.2307 115.651 88.1737 115.651 88.1034V79.093C115.651 79.0229 115.592 78.9652 115.521 78.9652Z" fill="#D31F28"/>
<path d="M125.629 75.3734H123.173C123.103 75.3734 123.045 75.4304 123.045 75.5014V85.9357C122.468 85.9357 122.177 85.7059 121.974 85.2233L118.634 77.129C118.096 75.9344 117.153 75.3734 115.378 75.3734H113.063C112.992 75.3734 112.934 75.4304 112.934 75.5014V77.5413C112.934 77.612 112.992 77.669 113.063 77.669H114.935C115.709 77.669 116.09 77.9169 116.355 78.4835L119.652 86.4756C120.189 87.6693 121.001 88.231 122.777 88.231H125.529C125.655 88.231 125.758 88.1296 125.758 88.0052V75.5014C125.758 75.4304 125.7 75.3734 125.629 75.3734Z" fill="#D31F28"/>
<path d="M119.542 163.851L120.117 163.849V187.456C107.575 182.484 97.291 176.403 90.4359 169.742C84.7376 164.206 80.5884 159.264 78.2874 155.136C74.9824 149.207 73.9215 145.115 73.5389 142.545C71.0768 126.008 72.8761 94.5058 72.6449 69.9904C81.0776 67.1257 89.6488 64.5383 98.7503 63.0122C106.206 61.8792 110.223 60.8702 120.302 61.0701C130.38 61.2702 140.726 63.0594 149.352 64.5331C155.879 66.2425 162.146 68.027 167.667 70.072L166.523 70.987L165.344 71.9307C158.152 69.7935 150.999 66.9359 144.435 66.054C136.172 65.1915 129.065 63.4062 120.561 63.4225C112.057 63.4388 104.561 64.4715 97.0516 65.875C89.8785 67.0023 82.4773 69.2954 74.9747 71.7426L75.0587 129.573C75.3893 141.712 76.779 145.857 77.6405 148.182C81.2098 157.813 89.3446 163.902 98.3925 169.385C104.468 172.686 110.493 175.621 116.231 177.742C117.904 174.017 118.88 169.093 119.542 163.851Z" fill="#FFD200"/>
</g>
<defs>
<clipPath id="clip0_10_542">
<rect width="180" height="180" fill="white" transform="translate(30 30)"/>
</clipPath>
</defs>
</svg>
