<svg xmlns="http://www.w3.org/2000/svg" width="84.279mm" height="82.021mm" viewBox="0 0 84.279 82.021"><defs><clipPath id="a"><path d="M154.21 577.67h37.895v36.889H154.21z"/></clipPath><clipPath id="b"><path d="M-32768 32767h65535v-65535h-65535z"/></clipPath></defs><g clip-path="url(#a)" transform="matrix(2.242 0 0 -2.242 -346.09 1377.54)"><g clip-path="url(#b)"><path fill="#fff" d="M191.76 607.5c.138.229.199.504.168.779a4 4 0 0 1-.137.795c-.138.413-.459.779-1.085 1.253a11.3 11.3 0 0 1-1.651 1.009c-1.146.596-2.919 1.299-4.768 1.299h-.259c-.963 0-2.094.382-3.087.718-.535.183-1.039.351-1.528.474-.367.091-1.07.244-1.742.244h-.016c-1.91 0-3.056-.336-3.973-.596-.229-.061-.443-.137-.657-.183-1.054-.26-1.88-.367-2.796-.367-1.773 0-3.867.428-6.831 1.406a1.4 1.4 0 0 1-.443.076 1.445 1.445 0 0 1-1.345-.901c-.535-1.33-.321-2.965.55-4.264.122-.183.26-.367.413-.535-3.958-1.895-5.991-4.874-6.999-7.136-.596-1.33-.994-2.735-1.146-4.096-.138-1.253-.062-2.353.214-3.086.091-.26.275-.474.504-.612-.535-4.294.963-8.129 3.224-10.162a1.24 1.24 0 0 1 .856-.321c.122 0 .229.016.336.046a11.8 11.8 0 0 1 1.651-2.2c1.833-1.865 4.294-2.98 7.35-3.316h.137c.489 0 .917.275 1.131.687a15.6 15.6 0 0 1 4.096-.55c5.914 0 6.861 3.286 6.999 4.126-.948-.336-1.88-.244-2.384-.214-.627.046-1.498.382-2.002.688a5.62 5.62 0 0 0-2.598 4.905c.061 4.294 4.034 5.333 5.394 5.257 1.253-.061 2.43-.413 3.393-1.192l.046-.046.045-.046a4.47 4.47 0 0 1 2.736-.947c.81 0 1.604.214 2.292.642a4.42 4.42 0 0 1 2.139 3.789c0 .382-.045.734-.122 1.085 0 .016-.015.031-.015.062a4.2 4.2 0 0 1-.55 1.237c-.214.994-.459 1.712-1.085 2.598a1.3 1.3 0 0 1-.245.26h.031q.252 0 .504.092c1.391.565 1.88 1.864 2.078 2.536l.046.031c.061.076.443.596.642 1.009l.031.061c.045.091.076.168.107.244.259.657.443 1.36.534 2.078.031.444-.03.887-.183 1.284"/><path d="M190.04 607.73c-.596.367-1.116.871-1.391 1.284-.045.076.046.168.123.122.489-.29 1.299-.779 1.864-1.009.031-.015.076.016.076.046-.015.229-.045.413-.091.52-.168.519-3.5 2.766-6.464 2.705-1.742-.046-3.653.886-5.043 1.222a7.3 7.3 0 0 1-1.452.214c-2.216 0-3.27-.489-4.34-.749-2.537-.626-4.936-.703-10.299 1.07-.092.03-.214-.015-.245-.107-.856-2.124 1.07-5.272 4.279-4.6.046.016.076-.046.03-.076-.55-.443-1.726-.581-2.46-.367-.137.046-.29.061-.443.046-8.023-3.102-9.184-11.232-8.359-13.249.504 1.818 1.299 2.796 2.017 3.515-2.934-5.746-1.283-11.507 1.467-13.845-.428 1.344-.443 2.75-.153 3.927.856-5.226 3.912-8.756 9.673-9.337-1.237.55-2.108 1.803-2.399 2.644 2.445-2.659 9.933-3.469 12.088-1.085-.902.046-2.017.504-2.644.871-1.727 1.054-3.178 3.041-3.255 5.792-.046 1.696.673 3.621 2.384 5.165-3.53-.673-8.848 2.277-8.45 7.961.382-6.54 6.357-8.206 10.07-7.014a6.8 6.8 0 0 0 2.674.566 6.67 6.67 0 0 0 4.187-1.468c.031-.03.061-.045.092-.076a3.15 3.15 0 0 1 1.971-.688c.612 0 1.162.169 1.651.459a3.2 3.2 0 0 1 1.528 2.72c0 .29-.031.55-.092.795v.03c-.107.397-.29.734-.519 1.055-.199 1.008-.382 1.589-.933 2.383-.045.062-.122.031-.137-.045a5.4 5.4 0 0 0-.107-.917c-.046-.245-.122-.657-.199-.978-.137-.505.367-.505.611-.535-.061-.168-.748-.138-.779-.015v.015c0 .061-.015.168-.03.305-.077.749-.321 1.636-1.009 2.216-.061.061-.168-.015-.168-.137-.092-.932-.321-1.972-.596-2.552v-.031c-.902.168-2.048.611-3.27.749-2.109.229-3.179.474-3.286 1.666 0 .046.061.061.077.015.305-.596.596-1.131 2.338-1.406.061-.015.091.076.03.107-1.329.764-1.268 1.314-1.192 2.307 0 .062.016.107.031.153.305 1.605 1.589 2.69 2.506 3.24.046.031.031.107-.031.107-1.283-.153-2.536-.718-3.438-2.109.092.275.229.566.413.841 1.543 2.368 4.477 1.879 6.586 1.512.122-.626.092-1.528-.046-2.353-.015-.107.077-.199.168-.168 1.162.458 1.681 1.467 1.941 2.246a5.3 5.3 0 0 1 1.116-.091c.015 0 .015-.016 0-.016-.383-.045-.734-.061-.78-.045-.015 0-.03-.031-.015-.046.107-.413.092-1.116 0-1.727-.015-.076.046-.138.107-.107 1.146.474 1.345 1.773 1.452 2.109.045.015.076.046.107.061 0 0 .015 0 .015-.015 0 .015.015.015.015.03.061.077.352.489.489.764 0 0 0 .016.015.016 0 .015.016.03.016.045.03.061.046.107.076.168.245.596.382 1.208.459 1.788a1.37 1.37 0 0 1-.627 1.391m-12.745 2.338c-.137.352-.137.703.077.978.137.183-.153.397-.703.199.137.107.305.168.489.198.168.031.351.016.535-.015.351-.061.687-.183.962-.397.245-.153.489-.352.78-.52a1.8 1.8 0 0 0-.245-.764c-.611.199-1.161.397-1.895.321m2.079-.382c.214.138.397.336.534.596.016 0 .046-.015.062-.015.107-.031.214-.061.336-.092.107-.015.229-.031.336-.031s.229.016.351.016c-.259-.153-.871-.673-1.619-.474"/></g></g></svg>