<svg width="240" height="240" viewBox="0 0 240 240" fill="none" xmlns="http://www.w3.org/2000/svg">
<g clip-path="url(#clip0_10_588)">
<path d="M200.562 50.1072H128.887C128.718 50.1069 128.551 50.1398 128.395 50.204C128.239 50.2683 128.097 50.3626 127.978 50.4817C127.858 50.6007 127.764 50.7421 127.699 50.8976C127.635 51.0532 127.602 51.2199 127.602 51.3883V73.6627C127.602 74.3481 128.152 74.9438 128.887 74.9438H175.736C176.424 74.9438 177.021 75.4921 177.021 76.2249V107.19C177.01 107.529 176.88 107.852 176.654 108.105L154.676 130.105C154.496 130.288 154.265 130.412 154.013 130.463C153.762 130.514 153.5 130.488 153.263 130.39C153.026 130.292 152.824 130.125 152.683 129.911C152.542 129.697 152.468 129.447 152.47 129.191V108.242C152.482 107.904 152.612 107.58 152.838 107.327L165.777 94.2922C165.955 94.1144 166.075 93.8877 166.123 93.6412C166.171 93.3948 166.144 93.1397 166.045 92.9087C165.946 92.6777 165.781 92.4813 165.57 92.3446C165.359 92.2079 165.111 92.1371 164.86 92.1413H128.887C128.549 92.1489 128.227 92.2864 127.988 92.5251C127.749 92.7638 127.612 93.0852 127.605 93.4224V188.699C127.605 189.843 128.98 190.391 129.805 189.614L201.522 118.488C201.641 118.368 201.735 118.225 201.798 118.068C201.861 117.911 201.892 117.743 201.89 117.574V51.3883C201.873 51.0461 201.726 50.7231 201.479 50.485C201.232 50.247 200.906 50.1119 200.562 50.1072Z" fill="#CFB887"/>
<path d="M39.3652 50.1072H111.085C111.772 50.1072 112.37 50.6556 112.37 51.3883V73.6628C112.37 74.3482 111.82 74.9439 111.085 74.9439H64.2361C64.0672 74.9435 63.8999 74.9764 63.7439 75.0407C63.5878 75.105 63.446 75.1993 63.3266 75.3183C63.2072 75.4374 63.1125 75.5787 63.0481 75.7343C62.9836 75.8899 62.9506 76.0566 62.9509 76.2249V107.19C62.9509 107.509 63.0884 107.831 63.3184 108.105L85.2964 130.105C86.1215 130.928 87.4992 130.335 87.4992 129.191V108.242C87.4885 107.903 87.3584 107.578 87.1316 107.325L74.1924 94.2898C74.016 94.1114 73.8966 93.8849 73.8496 93.6388C73.8026 93.3928 73.83 93.1384 73.9283 92.9079C74.0267 92.6774 74.1915 92.4812 74.4019 92.3443C74.6123 92.2074 74.8588 92.1358 75.11 92.1388H111.085C111.775 92.1388 112.37 92.7345 112.37 93.4199V188.696C112.37 189.84 110.995 190.389 110.17 189.611L38.4901 118.441C38.3708 118.321 38.2769 118.178 38.2138 118.021C38.1507 117.864 38.1197 117.695 38.1226 117.526V51.3858C38.1168 51.2196 38.1448 51.054 38.2047 50.8988C38.2646 50.7436 38.3552 50.6019 38.4711 50.4824C38.5871 50.3628 38.726 50.2678 38.8796 50.2029C39.0333 50.138 39.1984 50.1046 39.3652 50.1047" fill="#CFB887"/>
</g>
<defs>
<clipPath id="clip0_10_588">
<rect width="164" height="140" fill="white" transform="translate(38 50)"/>
</clipPath>
</defs>
</svg>
