<svg width="240" height="240" viewBox="0 0 240 240" fill="none" xmlns="http://www.w3.org/2000/svg">
<g clip-path="url(#clip0_10_594)">
<path d="M220 127.259L200.097 137.793C194.986 131.45 189.766 125.526 184.819 120.549C167.528 103.151 150.955 91.5559 134.767 83.0893C128.112 79.6081 121.553 76.7467 115.202 74.3576C100.993 69.0135 87.6743 66.1705 75.5679 65.0063C97.1248 65.3963 120.627 69.5979 145.077 79.3359C169.525 89.0739 195.125 104.349 220 127.259Z" fill="#F3741B"/>
<path d="M50.6277 100.046L33.1604 80.0061C62.4721 72.8421 87.2883 74.4962 109.091 81.8675C131.926 89.5879 152.224 103.782 167.76 122.153C153.166 107.366 134.783 97.1194 114.599 93.013C110.508 92.1804 106.331 91.4678 102.109 91.1476C85.4985 89.889 68.0104 92.7848 50.6277 100.046Z" fill="#3E3E3E"/>
<path d="M138.384 109.247L126.34 129.352C116.756 124.594 95.3101 113.814 71.4919 114.885C57.1049 115.533 41.859 120.456 27.822 133.776C25.1939 136.271 22.7743 139.296 20.2573 142.42C24.9038 134.835 33.6095 122.453 48.0109 113.037C58.039 106.483 70.8686 101.407 86.9736 100.354C101.262 99.4195 118.277 101.704 138.384 109.247Z" fill="#BCBEC1"/>
<path d="M83.3347 148.64V158.668H81.4505V153.514H76.0266V158.668H74.1416V148.64H76.0266V151.919H81.4505V148.64H83.3347Z" fill="black"/>
<path d="M90.0299 155.01H87.8677C87.1714 155.01 86.8233 155.285 86.8233 155.835V156.094C86.8233 156.635 87.1714 156.906 87.8677 156.906H90.0299C90.7426 156.906 91.099 156.635 91.099 156.094V155.835C91.099 155.285 90.7426 155.01 90.0299 155.01ZM87.3762 158.421C86.6635 158.421 86.09 158.211 85.6559 157.792C85.2217 157.374 85.0046 156.857 85.0046 156.242V155.712C85.0046 155.097 85.2217 154.575 85.6559 154.149C86.09 153.722 86.643 153.508 87.3147 153.508H91.099V153.484C91.099 152.885 90.6854 152.585 89.8581 152.585H85.5824V151.083H90.0299C90.9472 151.083 91.66 151.325 92.1682 151.809C92.6678 152.286 92.9177 152.934 92.9177 153.755V156.303C92.9177 156.943 92.6881 157.464 92.2289 157.866C91.8027 158.236 91.2213 158.42 90.4846 158.42L87.3762 158.421Z" fill="black"/>
<path d="M97.7264 151.001H99.2726C100.253 151.001 101.028 151.287 101.598 151.858C102.159 152.437 102.439 153.226 102.439 154.225V158.506H100.579V154.35C100.579 153.738 100.47 153.301 100.252 153.041C99.9928 152.722 99.6034 152.563 99.084 152.563H97.8902C97.3959 152.563 97.0145 152.722 96.746 153.041C96.5452 153.301 96.4447 153.738 96.4447 154.35V158.506H94.5837V154.225C94.5837 153.226 94.8645 152.437 95.4259 151.857C95.9959 151.287 96.7633 151.001 97.7264 151.001Z" fill="black"/>
<path d="M109.906 157.551C109.4 158.15 108.748 158.45 107.95 158.45H106.978C106.106 158.45 105.404 158.171 104.872 157.613C104.39 157.097 104.149 156.377 104.149 155.453V151.009H105.981V155.416C105.981 155.94 106.085 156.315 106.293 156.54C106.517 156.781 106.816 156.901 107.19 156.901H107.763C108.145 156.901 108.448 156.781 108.673 156.54C108.889 156.315 108.997 155.941 108.997 155.416V151.009H110.816V155.416C110.816 155.94 110.92 156.315 111.128 156.54C111.352 156.781 111.651 156.901 112.025 156.901H112.598C112.98 156.901 113.283 156.781 113.508 156.54C113.724 156.315 113.832 155.941 113.832 155.416V151.009H115.664V155.453C115.664 156.377 115.414 157.097 114.916 157.613C114.376 158.171 113.67 158.45 112.798 158.45H111.826C111.053 158.45 110.413 158.15 109.906 157.551Z" fill="black"/>
<path d="M120.695 152.535C120.205 152.535 119.827 152.693 119.561 153.009C119.362 153.267 119.263 153.7 119.263 154.307V158.426H117.419V148.591H119.263V151.324C119.628 151.1 120.052 150.988 120.533 150.988H122.066C123.037 150.988 123.805 151.271 124.369 151.837C124.926 152.41 125.204 153.192 125.204 154.182V158.426H123.361V154.307C123.361 153.7 123.253 153.267 123.037 153.009C122.779 152.693 122.393 152.535 121.878 152.535H120.695Z" fill="black"/>
<path d="M131.821 155.033H129.622C128.913 155.033 128.559 155.313 128.559 155.873V156.136C128.559 156.687 128.913 156.962 129.622 156.962H131.821C132.546 156.962 132.908 156.687 132.908 156.136V155.873C132.908 155.313 132.546 155.033 131.821 155.033ZM129.121 158.503C128.397 158.503 127.814 158.29 127.371 157.864C126.93 157.438 126.709 156.912 126.709 156.286V155.748C126.709 155.122 126.93 154.591 127.372 154.157C127.813 153.723 128.376 153.506 129.059 153.506H132.909V153.48C132.909 152.871 132.488 152.567 131.646 152.567H127.297V151.038H131.821C132.755 151.038 133.479 151.285 133.996 151.777C134.504 152.261 134.759 152.921 134.759 153.756V156.348C134.759 156.999 134.525 157.53 134.059 157.939C133.625 158.315 133.033 158.503 132.284 158.503H129.121Z" fill="black"/>
<path d="M144.484 156.94H149.223V158.51H144.17C141.938 158.51 140.822 157.555 140.822 155.646V148.635H142.69V155.369C142.69 156.416 143.288 156.94 144.484 156.94Z" fill="black"/>
<path d="M150.837 158.394V150.983H152.705V158.394H150.837ZM152.929 149.574C152.929 149.881 152.817 150.135 152.593 150.335C152.369 150.526 152.091 150.621 151.759 150.621C151.435 150.621 151.165 150.526 150.949 150.335C150.733 150.135 150.625 149.881 150.625 149.574C150.625 149.275 150.733 149.025 150.949 148.825C151.165 148.617 151.435 148.513 151.759 148.513C152.09 148.513 152.368 148.613 152.593 148.813C152.816 149.012 152.928 149.266 152.928 149.573L152.929 149.574Z" fill="black"/>
<path d="M156.398 151.013H159.095V152.551H156.385V158.433H154.524V151.013C154.524 150.303 154.782 149.723 155.299 149.273C155.798 148.822 156.564 148.597 157.596 148.597H159.095V150.149H157.684C156.91 150.149 156.481 150.437 156.398 151.013Z" fill="black"/>
<path d="M163.414 154.534H165.62C166.335 154.534 166.692 154.259 166.692 153.71V153.448C166.692 152.891 166.335 152.612 165.621 152.612H163.415C162.709 152.612 162.355 152.891 162.355 153.448V153.71C162.355 154.26 162.709 154.535 163.415 154.535L163.414 154.534ZM168.536 153.323V153.848C168.536 154.472 168.312 154.996 167.863 155.42C167.406 155.845 166.842 156.058 166.169 156.058H162.355V156.095C162.355 156.694 162.775 156.993 163.614 156.993H168.201V158.529H163.427C162.497 158.529 161.774 158.288 161.259 157.805C160.761 157.331 160.511 156.677 160.511 155.845V153.311C160.511 152.686 160.731 152.162 161.172 151.737C161.621 151.305 162.206 151.089 162.929 151.089H166.106C166.829 151.089 167.415 151.305 167.864 151.737C168.312 152.17 168.536 152.699 168.536 153.323Z" fill="black"/>
<path d="M90.6077 166.953C90.6077 165.881 90.8668 165.082 91.3851 164.554C91.92 164.027 92.7012 163.763 93.7288 163.763H99.4572V165.321H94.0044C93.3865 165.321 92.9646 165.467 92.7387 165.761C92.563 166.012 92.4751 166.451 92.4751 167.079V167.933H98.7428V169.478H92.4759V170.357C92.4759 170.968 92.5635 171.399 92.7387 171.65C92.9641 171.935 93.386 172.077 94.0044 172.077H99.4572V173.634H93.7288C92.7007 173.634 91.9194 173.366 91.3851 172.831C90.8668 172.32 90.6077 171.533 90.6077 170.469V166.953Z" fill="black"/>
<path d="M106.185 169.158C106.975 169.158 107.569 169.296 107.967 169.57C108.483 169.912 108.741 170.432 108.741 171.132V171.694C108.741 172.385 108.483 172.901 107.968 173.242C107.56 173.509 106.933 173.642 106.085 173.642H101.136V172.093H105.961C106.575 172.093 106.883 171.914 106.883 171.557V171.245C106.883 170.878 106.584 170.695 105.985 170.695H103.504C102.732 170.695 102.138 170.561 101.723 170.294C101.224 169.953 100.975 169.437 100.975 168.746V168.172C100.975 167.463 101.224 166.943 101.723 166.611C102.13 166.336 102.749 166.198 103.58 166.198H108.342V167.747H103.741C103.134 167.747 102.831 167.93 102.831 168.297V168.621C102.831 168.979 103.122 169.158 103.703 169.158H106.185Z" fill="black"/>
<path d="M112.174 169.305V172.02H115.128C115.613 172.02 115.966 171.88 116.187 171.6C116.368 171.353 116.458 170.971 116.458 170.453V169.318C116.458 168.792 116.368 168.406 116.187 168.159C115.965 167.871 115.612 167.727 115.128 167.727H113.491C113.007 167.727 112.659 167.871 112.445 168.159C112.264 168.406 112.174 168.788 112.174 169.306V169.305ZM110.352 169.207C110.352 168.262 110.615 167.53 111.14 167.012C111.673 166.477 112.408 166.206 113.344 166.198H115.276C116.211 166.206 116.946 166.477 117.479 167.012C118.013 167.529 118.28 168.261 118.28 169.207V170.552C118.28 171.489 118.013 172.216 117.479 172.735C116.946 173.269 116.216 173.54 115.288 173.549H112.174V175.991H110.352V169.207Z" fill="black"/>
<path d="M124.996 172.101C125.5 172.101 125.859 171.96 126.074 171.678C126.265 171.422 126.36 171.036 126.36 170.523V169.38C126.36 168.858 126.265 168.468 126.074 168.211C125.859 167.921 125.5 167.776 124.996 167.776H123.135C122.639 167.776 122.283 167.921 122.068 168.211C121.886 168.46 121.795 168.849 121.795 169.38V170.523C121.795 171.044 121.886 171.43 122.068 171.678C122.283 171.96 122.639 172.101 123.135 172.101H124.996ZM125.169 173.642H122.973C122.03 173.634 121.29 173.36 120.753 172.822C120.224 172.3 119.959 171.566 119.959 170.622V169.268C119.959 168.315 120.224 167.578 120.753 167.056C121.291 166.517 122.031 166.243 122.973 166.235H125.169C126.12 166.243 126.864 166.517 127.402 167.056C127.931 167.578 128.195 168.315 128.195 169.268V170.622C128.195 171.567 127.931 172.3 127.402 172.822C126.864 173.361 126.119 173.634 125.169 173.642Z" fill="black"/>
<path d="M129.864 168.51C129.864 167.789 130.103 167.213 130.583 166.782C131.038 166.368 131.732 166.161 132.667 166.161H135.47V167.702H132.853C132.092 167.702 131.712 168.05 131.712 168.745V173.567H129.864V168.51Z" fill="black"/>
<path d="M140.895 166.105H143.105V167.628H140.895V173.605H139.024V167.628H136.814V166.105H139.024V164.469H140.895V166.105Z" fill="black"/>
<path d="M149.762 169.157C150.551 169.157 151.144 169.295 151.543 169.57C152.059 169.911 152.316 170.432 152.316 171.131V171.692C152.316 172.383 152.059 172.899 151.543 173.241C151.136 173.507 150.509 173.641 149.662 173.641H144.714V172.092H149.537C150.152 172.092 150.459 171.913 150.459 171.555V171.243C150.459 170.877 150.16 170.694 149.562 170.694H147.082C146.309 170.694 145.715 170.56 145.3 170.293C144.801 169.952 144.552 169.436 144.552 168.745V168.171C144.552 167.463 144.801 166.943 145.3 166.61C145.707 166.335 146.326 166.198 147.157 166.198H151.917V167.747H147.318C146.712 167.747 146.409 167.93 146.409 168.296V168.62C146.409 168.978 146.7 169.157 147.281 169.157H149.762Z" fill="black"/>
</g>
<defs>
<clipPath id="clip0_10_594">
<rect width="200" height="111" fill="white" transform="translate(20 65)"/>
</clipPath>
</defs>
</svg>
