<svg width="240" height="240" viewBox="0 0 240 240" fill="none" xmlns="http://www.w3.org/2000/svg">
<g clip-path="url(#clip0_71_103)">
<path d="M25.5332 63L43.0695 97.3405L68.4747 97.2801L68.4989 132.996L50.5802 133.079L53.6491 115.134L43.0271 115.126L20 146.916L21.5307 149.628L69.7053 149.6L83.3388 175.995L86.3927 175.991L86.3625 93.0689L73.9399 80.629L55.2396 80.6532L28.832 63.0023L25.5332 63ZM94.5081 80.9618L94.4968 97.3435L127.515 97.3397L127.538 133.244L112.196 133.278L109.096 115.48L94.4937 115.445L94.5293 149.997L133.384 149.926L145.476 137.856V93.1051L133.313 80.9995L94.5081 80.9618ZM153.679 93.1051L153.648 176H156.684L170.373 149.663L218.502 149.635L220 146.979L196.918 115.092L186.337 115.108L189.389 133.002L171.566 133.014L171.551 97.3578L196.999 97.3088L214.478 63.0015L211.097 63L184.864 80.6215L166.089 80.6464L153.679 93.1051Z" fill="white"/>
</g>
<defs>
<clipPath id="clip0_71_103">
<rect width="200" height="113" fill="white" transform="translate(20 63)"/>
</clipPath>
</defs>
</svg>
