<svg width="240" height="240" viewBox="0 0 240 240" fill="none" xmlns="http://www.w3.org/2000/svg">
<g clip-path="url(#clip0_10_600)">
<path d="M72.5737 173.487V163.371L73.1092 163.167L73.6446 162.963L75.4141 162.943C78.3514 162.683 80.2735 163.901 79.9825 166.936C79.8388 167.872 79.2482 169.378 78.2238 169.255C78.2238 169.255 79.7407 172.043 80.2963 173.194L80.1293 173.473L79.6704 173.528C79.0917 173.533 78.5146 173.506 77.9368 173.478C77.3617 172.304 76.7205 171.024 76.1612 169.842C75.7452 169.931 75.3449 169.884 74.9277 169.844V172.992C74.4136 173.767 74.321 173.486 72.5737 173.486V173.487ZM77.674 166.876C77.9015 164.683 76.6686 164.954 74.9277 164.954C74.9096 165.914 74.9464 166.873 74.9773 167.833C76.5871 167.903 76.9503 167.784 77.6743 166.876H77.674ZM93.2045 167.666C93.1178 164.887 94.5013 162.951 97.3373 162.929C100.775 162.82 101.804 164.947 101.804 168.125C101.96 171.142 100.74 173.611 97.4955 173.6C93.8304 173.778 93.0705 170.734 93.2045 167.666ZM99.4478 168.198C99.4288 166.557 99.4504 164.954 97.4552 164.954C95.7964 164.885 95.6107 166.239 95.5546 167.598C95.4163 169.282 95.3993 171.837 97.6383 171.584C99.441 171.464 99.4478 169.717 99.4478 168.198ZM114.561 172.326L114.558 167.966L114.555 163.606L115.192 162.967L116.992 162.975L116.988 171.422C116.988 171.422 120.468 171.501 121.555 171.237C121.572 171.843 121.555 172.452 121.614 173.054C121.396 173.574 120.828 173.521 115.318 173.493C114.262 172.789 114.561 172.327 114.561 172.327V172.326ZM134.375 172.523C134.406 171.958 134.23 171.113 134.611 170.955C135.578 171.303 139.077 172.422 139.077 170.576C139.111 169.572 137.607 169.148 136.858 168.795C133.503 167.418 133.569 164.187 136.814 163.105C138.572 163.105 139.463 163.007 140.787 162.835C140.787 163.583 140.823 164.373 140.73 164.721C139.824 165.572 137.529 164.321 136.898 165.968C137.373 167.42 141.207 167.321 141.473 169.956C141.483 172.523 140.368 173.6 137.41 173.593C136.127 173.593 134.803 173.355 134.375 172.523ZM157.126 173.479L157.145 164.936C157.145 164.936 155.161 164.954 154.248 164.954C154.248 164.17 153.965 163.453 154.567 163.055C156.882 163.055 160.085 162.99 162.422 162.988C162.354 163.627 162.646 164.257 162.187 164.718C161.653 165.196 160.918 165.032 159.538 165.032L159.598 173.142C159.169 173.757 158.08 173.479 157.126 173.479ZM175.37 172.966V163.587L176.253 163.007C178.173 162.987 181.43 163.135 182.07 162.726C182.486 162.485 182.432 162.847 182.432 163.772C182.512 164.424 182.232 164.537 181.816 164.954L177.752 164.983L177.724 166.148L177.696 167.131L181.885 167.131C181.885 167.131 182.247 169.17 181.412 169.198L177.794 169.209C177.794 169.209 177.744 170.688 177.704 171.442H180.068C180.068 171.442 181.695 171.511 182.452 171.255L182.432 172.204C182.432 173.052 182.656 173.098 181.799 173.358C180.858 173.643 178.531 173.539 176.645 173.585C176.123 173.51 175.37 173.199 175.37 172.966ZM195.184 173.192C195.143 169.876 195.246 166.559 195.181 163.244C196.344 163.042 197.417 162.878 198.703 162.824C200.93 162.986 202.488 163.527 202.826 165.445C202.915 167.587 202.637 168.452 201.255 169.408C201.761 170.72 202.387 171.974 203 173.237C202.878 173.673 202.439 173.534 201.62 173.623C201.097 173.632 200.796 173.488 200.509 173.232L198.924 169.843C198.481 169.931 198.052 169.884 197.608 169.842L197.579 171.597L197.522 173.227C196.378 173.698 196.194 173.781 195.184 173.192ZM200.372 166.341C200.372 164.694 199.219 164.922 197.636 165.052L197.609 167.861C199.943 168.024 200.372 167.37 200.372 166.341Z" fill="black"/>
<path d="M144.833 200.862V183.975C144.833 183.975 140.061 183.941 141.537 183.961C140.691 183.961 140.15 184.835 140.17 184.993C140.13 184.046 140.17 201.738 140.17 201.738C140.17 204.261 141.906 206 144.426 206H148.012C148.781 206 149.407 205.374 149.407 204.603V202.117H146.081C145.392 202.117 144.833 201.554 144.833 200.862ZM131.794 197.128L135.643 192.358C135.643 192.358 133.064 190.826 128.342 194.415L127.876 194.903V184.034H124.608C123.843 184.034 123.219 184.659 123.219 185.43V206H126.486C127.252 206 127.876 205.374 127.876 204.603V199.13L130.521 202.386L132.772 205.162C133.226 205.732 133.822 205.998 134.436 205.998H138.994L136.046 202.374L131.794 197.128Z" fill="black"/>
<path d="M150.184 191.285L150.182 188.183L149.893 188.489C149.886 188.498 149.01 189.392 146.497 189.392H134.62C132.746 189.392 131.864 190.157 131.188 190.984L128.342 194.471C128.342 194.471 129.75 193.445 131.643 193.445H146.497C148.124 193.445 149.238 193.125 149.812 192.496C150.221 192.046 150.185 191.289 150.184 191.285Z" fill="#FF0A07"/>
<path d="M71.9186 152.208L71.9418 152.06L71.6223 107.339L49.7279 123.21L58.1128 97.3914L36 81.2134L63.2104 81.3958L68.3648 65.8811L45.6151 34.9998L142.486 35.1962C163.285 36.6638 179.821 55.6583 179.074 76.477C179.074 90.706 170.353 100.846 166.669 104.674L202.04 152.309L159.812 152.355L132.532 115.744C132.532 115.744 116.603 115.662 108.673 115.694V152.355H71.8953L71.9186 152.208ZM144.614 75.5522C144.614 72.441 142.24 69.5189 138.116 69.5189H76.4071L80.2719 81.3455L138.066 81.3712C142.509 81.3118 144.614 78.5435 144.614 75.5522Z" fill="#FF0A07"/>
<path d="M132.532 115.744C144.385 115.744 152.438 116.464 166.738 104.643L169.58 108.517C156.898 120.279 144.792 119.973 135.539 119.973L132.532 115.744Z" fill="#CC0507"/>
<path d="M58.3843 111.153L63.4816 95.4185L50.1294 85.5427L66.6378 85.5359L71.8038 69.7937L76.9724 85.5181L93.4192 85.7161L80.1705 95.376L85.1744 111.182L71.7367 101.454L58.3843 111.153Z" fill="white"/>
</g>
<defs>
<clipPath id="clip0_10_600">
<rect width="167" height="171" fill="white" transform="translate(36 35)"/>
</clipPath>
</defs>
</svg>
