<svg xmlns="http://www.w3.org/2000/svg" viewBox="0.00 0.00 1000.00 1154.00"><path fill="#b69c76" d="m425.55 0-50.69 99.48q-.83 1.63.53.4 65.93-59.48 155.4-66.45c56.64-4.41 115.33 8.37 168.1 28.88q64.61 25.11 121.33 64.19 1.03.71-.21.87l-113.62 15.02q-1.7.22-.08.77c43.94 14.73 84.19 41.61 118.39 72.65 33.73 30.62 63.55 66.07 89.28 103.26q43.49 62.85 75.43 132.29 5.69 12.36 10.19 23.37a.25.25 0 0 1-.33.33l-134.96-56.09q-.99-.41-.32.43 22.04 27.77 40.66 57.46c27.98 44.59 51.13 96.04 56.09 148.87q8.37 89-49.67 155.37-18.85 21.55-44.07 37.86-1.01.65-.87-.54l9.29-79.9q.15-1.25-.48-.16-3.27 5.59-7.83 11.26c-17.27 21.46-36 40.82-56.24 61.25q-38.49 38.85-89.84 87.16c-58.35 54.89-106.94 129.9-100.34 213.01q1.77 22.25 9.65 42.35.16.41-.23.2-27.6-15.08-58.39-25.65c-32.4-11.12-56.87-17.76-97.91-30.17q-77.55-23.44-146.05-58.77c-51.15-26.38-96.96-66.29-117.19-121.51q-7.49-20.44-8.68-40.35-.28-4.57.3-7.69.11-.57 40.65-189.11.24-1.11-.39-.17l-52.84 78.33a.38.37-53.7 0 1-.54.09L63.88 664.93q-.4-.3-.34-.79l7.4-63.61a1.48 1.47-58.1 0 0-.22-.96q-29.68-46.29-37.87-59.11-1.09-1.72-2.89-2.67-11.53-6.08-23.45-12.16a2 1.99 7.6 0 1-1.03-1.34L0 500.06v-.94L133.26 388.7q1.72-1.43.38.36L56.26 492.85a.28.28 0 0 0 .26.45l77.25-8.49q1.03-.11.19.49l-63.23 45.29q-.47.34-.17.84l30.28 49.19a.71.7 80.8 0 0 .42.31l98.96 22.83a1.24 1.22-60.2 0 0 1.15-.32l53.14-52.21a.2.2 0 0 0 0-.28L198.4 490.1q-.52-.57.25-.5 78.2 7.05 114.21 10.29 2.44.22 4.65-.61c30.86-11.69 55.85-33.47 68.09-64.42q10.23-25.86 8.61-54.03a1.3 1.28 12.1 0 0-.71-1.08l-79.25-39.61q-.7-.35.08-.44l72.05-7.92q.62-.06.1-.49l-78.58-63.44q-.29-.23-.66-.18l-107.95 14.27a.5.48-72.6 0 0-.33.18l-47.51 58.85q-.63.78-.46-.21l9.45-54.69a.82.82 0 0 0-.25-.73l-27.15-25.77q-.48-.45-.38-1.1 5.87-39.54 7.03-47.62.56-3.95 2.13-7.26c7.89-16.73 18.79-32.42 30.87-46.16 28.84-32.81 64.36-59.72 102-82.96Q345.81 30.57 423.8 0zm35.15 173.71 181.56-77.94a.42.41 45.3 0 0 0-.76q-17.92-8.13-36.85-12.65C480.28 52.48 357 115.61 268.5 198.33q-1.54 1.45-.69-.49l50.7-115.48q.47-1.08-.43-.31L173.31 206.82a1.87 1.85-15.9 0 0-.62 1.1l-5.14 29.72a.7.7 0 0 0 .14.54l16.52 21.12a.98.97-25.2 0 0 .99.35l110.32-24.51a7.9 7.75-68.1 0 0 2.72-1.19l124.88-86.09q1.05-.72.31.32l-64.3 91.72q-.45.63.3.45l158.35-39.1a.28.28 0 0 1 .35.3l-4.7 52.67a1.62 1.62 0 0 0 .5 1.32l168.45 159.88q1.59 1.51-.28.36L501.57 304.39a.41.4 28.3 0 0-.58.17l-15.92 34.92q-.64 1.4-.67-.14l-1.89-98.12q-.01-.49-.45-.27l-85.44 42.73a.38.37 53.1 0 0-.08.62q25.23 22.82 45.8 46.35 10.54 12.05 17.45 23.66 1.38 2.31 2.38 5.09.16.45-.32.45h-44.48q-.85 0-.14.47 17.53 11.72 33.61 26.53c55.07 50.75 93.97 116.98 114.25 189.16q.21.73-.37.24l-132.8-111.31a.24.23 27 0 0-.38.12l-82.38 309.4a.15.14 2.4 0 1-.13.11q-.29.03-.33-.3-.04-.31-28.46-146.3-.15-.74-.48-.07-28.85 58.05-42.95 120.89-6.64 29.6-7.33 60.87c-.17 7.62-.03 17.6 1.32 24.45 8.8 44.78 35.13 85.81 68.57 116.67 35.38 32.67 79.13 55.29 125.77 70.65q1.14.38.18-.34-33.98-25.09-53.56-63.24c-24.75-48.22-26.36-103.17-13.02-155.08q.46-1.79 5.41-19.25 32.21-113.82 61.78-218.18.11-.41.27-.02.19.49.22 1.21.69 14.33 11.03 223.22.95 19.25 1.82 38.51.61 13.57 1.2 19.96 5.09 54.64 29.78 103.5 3.27 6.47 9.66 17.52 8.66 14.96 17.44 29.88.32.55.57-.04 63.62-152.32 118.06-282.61.02-.06 3.48-8.04 6.62-15.29 9.91-31.35c23.21-113.58-50.24-212.1-134.87-276.88q-.22-.17-.11-.33v-.01q.11-.17.3-.06 82.36 47.62 118.66 68.49 5.65 3.24 9.74 6.89c26.37 23.49 48.04 53.84 63.01 85.85q30.92 66.13 22.16 139.54c-4.93 41.25-19.23 81.65-39 118.18q-.86 1.59.56.48 40.72-31.71 69.25-74.39c21.93-32.81 35.92-70.56 37.21-110.08 1.99-60.45-29.21-117.28-69.7-160.48q-2.72-2.9.75-.96c25.32 14.13 48.43 34.54 67.77 56.17q31.6 35.37 55.18 78.17.7 1.27.86-.17c2.98-26.53-.1-54.22-6.74-80.38-19.1-75.39-68.27-140.96-126.8-191.4q-30.5-26.28-56.36-43.5-.09-.06-.1-.22-.01-.07.01-.11.07-.16.33-.08l209.58 67.65q.8.26.3-.42-16.56-22.43-39.26-46.48c-68.61-72.69-157.32-132.99-257.46-147.83q-67.33-9.97-133.86 9.32-.1.02-.18-.09h-.01a.19.15-27.2 0 1 .11-.24"/><path fill="#b69c76" d="M203.79 216.46a4.32 4.26-15.1 0 0-.86 1.47l-9.17 27.32q-.21.6-.65.15l-10.98-11.17q-.38-.4-.23-.93l5.5-19.28a2.58 2.54 77.9 0 1 .77-1.21l80.9-70.23q.63-.55.16.15-1.1 1.59-2.57 3.18-7 7.6-62.87 70.55M619.3 191.87c68.17 16.18 131.41 52.32 182.89 99.73q1.92 1.76-.38.54l-192.92-101.8q-1.47-.77.17-.51 4.93.77 10.24 2.04M208.23 387.1a1.26 1.26 0 0 0-.8.69l-32.14 71.33q-.92 2.03-.7-.19 4.61-46.78 6.75-68.69.29-2.98-.46-5.87-2.59-9.92-6.32-23.99-.17-.61.46-.57l99.21 7.08q1.47.11.06.53zM360.87 403.31a.61.6-70.8 0 0-.22-.47l-28.94-24.26q-.78-.65.21-.42l49.74 11.47q1.53.36 1.3 1.92-2.41 15.81-9.27 29.39c-12.98 25.71-33.53 47.19-56.5 64.75q-1.8 1.37-.42-.42c14.28-18.55 28.22-38.96 37.61-58.85 3.27-6.95 6.34-15.21 6.49-23.11M781.42 694.91l-.25.52q-.03.06-.09.05-.12-.03-.18-.17-.02-.06-.01-.14 1.6-9.61 1.79-12.17c4.69-64.02-13.99-128.51-46.91-183.56q-.11-.18-.1-.32l.03-.24q.09-.19.3.06c45.34 52 78.99 128.28 45.42 195.97M195.53 568.74q14.64-5.5 38.58-14.5 1.19-.44.28.43l-33.93 32.74a.8.79-60.7 0 1-.7.2l-84.36-17.36q-2.9-.6.06-.59 22.94.06 74.2.02 3.38-.01 5.87-.94M529.49 883.84a.2.19 42.5 0 0 .33-.01l101.24-183.78q.06-.11.17-.06l.27.12q.05.02 0 .16-19.61 56.57-45.88 116.62-26.55 60.69-55.51 119.35-.46.93-.77-.06l-29.22-94.58q-.29-.93.37-.21.46.52 1.12 1.5 13.84 20.59 27.88 40.95M298.05 746.51q-3.21 14.24-3.59 31.75-.83 39.22 8.02 77.94.57 2.51-.79.33c-21.68-34.74-20.33-76.62-3.61-113.05q.62-1.34.5.13-.07.88-.53 2.9"/></svg>