<svg width="240" height="240" viewBox="0 0 240 240" fill="none" xmlns="http://www.w3.org/2000/svg">
<g clip-path="url(#clip0_10_554)">
<path d="M120 30C118.796 31.3788 117.014 33.044 115.169 34.301C111.211 36.997 106.716 38.992 102.121 40.8297C90.7714 45.3672 77.852 47.4873 65.0481 48.397C61.0202 48.6833 56.8807 48.6549 53 48.6691V130.831C53.417 139.406 55.3234 147.794 58.9548 156.854C61.0701 162.131 64.0748 167.535 68.5981 173.302C71.2245 176.65 74.1968 180.233 78.2334 183.69C80.9968 186.057 84.1202 188.52 87.7326 190.936C90.7619 192.964 94.1876 194.948 97.7898 197.036C104.562 200.958 111.581 205.089 120 210C127.328 205.71 132.749 202.484 138.763 199.001C145.191 195.275 151.434 192.042 158.792 186.207C161.002 184.454 162.956 182.575 164.853 180.672C167.56 177.956 170.06 175.144 172.27 172.179C174.455 169.248 176.456 166.227 178.135 163.115C183.849 152.522 186.69 141.072 187 130.235V48.6691C175.378 49.0678 165.058 47.7388 156.422 46.1005C142.329 43.4267 132.359 39.0197 126.371 35.327C122.731 33.082 120.668 30.7491 120 30Z" fill="#CE9438"/>
<path d="M55.9312 98.8606L96.5506 98.0236L110.788 73.5347L127.747 114.558L144.078 97.1867L185.325 102.671C185.197 115.543 185.564 123.994 185.098 132.054C184.176 148.002 177.872 162.522 169.57 172.766C167.235 175.645 165.52 177.707 161.921 181.072C154.254 188.238 147.218 192.231 138.727 197.041C127.296 203.515 126.584 204.371 120 207.907C108.918 201.465 96.7033 194.734 88.6871 189.539C85.0714 187.198 82.1269 184.698 79.8257 182.637C70.5749 174.357 65.2856 165.553 63.5336 162.347C57.7813 151.825 54.8304 137.586 54.9238 131.009L54.8059 102.772L55.9312 98.8606Z" fill="black"/>
<path d="M120 32.6643C116.356 36.2296 111.298 39.0411 105.497 41.4372C88.797 48.3337 66.1331 50.8311 54.8415 50.5162L54.7766 94.0841L94.8983 96.8963L110 70.4036L129.987 116.432L143.608 99.1153L185.228 99.0108L185.326 50.4609C180.456 50.6594 174.358 50.3224 167.673 49.544C156.788 48.2767 144.37 45.6465 133.329 40.8138C128.409 38.6606 122.441 35.4757 120 32.6643Z" fill="#EC1B24"/>
<path d="M54.8319 94.0747L54.8232 102.732L100.341 102.72L109.703 78.6916L130.513 132.072L142.026 102.576L185.325 102.658V93.9354L136.148 94.0762L130.504 108.44L109.657 55.2429L94.406 94.1712L54.8319 94.0747Z" fill="white"/>
<path d="M81.7889 144.07V161.337H86.3953V148.569H99.7515C100.987 148.569 101.712 150.007 101.302 150.454H88.175V154.991L98.0153 161.337H106.22L96.431 155.058H105.867V149.216C105.717 147.584 103.43 144.07 100.027 144.07H81.7889ZM109.008 143.965H131.934V148.501H113.51V150.479H131.934V154.83H113.51V156.887H131.934V161.337H109.008V143.965ZM135.18 143.965V148.465H153.081L154.757 152.625L153.029 156.732H139.786V150.401H135.18V161.337H156.196L159.598 152.625L156.222 143.965H135.18ZM81.7256 164.619V171.996H83.0709V169.148H89.8764V167.843H83.0709V165.746H89.8764V164.619H81.7256ZM99.0757 164.619V171.996H107.385V164.619H99.0757ZM100.419 165.826H106.042V170.651H100.428L100.419 165.826Z" fill="#EC1B24"/>
<path d="M116.465 164.619V171.996H117.809V165.826H122.158C122.995 165.826 123.491 166.664 123.379 167.329H119.077V168.674L122.973 171.996H124.943L121.196 168.674H124.715V166.825C124.715 165.602 123.312 164.619 122.436 164.619H116.465Z" fill="#EC1B24"/>
<path d="M133.875 164.619H142.105V165.826H135.299V170.651H142.105V171.996H133.875V164.619ZM151.354 164.619H159.514V165.826H152.629V167.645H159.514V168.911H152.629V170.651H159.514V171.996H151.354V164.619Z" fill="#EC1B24"/>
</g>
<defs>
<clipPath id="clip0_10_554">
<rect width="134" height="180" fill="white" transform="translate(53 30)"/>
</clipPath>
</defs>
</svg>
