<svg width="240" height="240" viewBox="0 0 240 240" fill="none" xmlns="http://www.w3.org/2000/svg">
<g clip-path="url(#clip0_10_614)">
<path d="M120.202 196.301L118.503 192.461C117.953 191.149 116.813 190.531 115.318 190.531H96.8195V191.448L99.5927 194.195H113.92C114.433 194.195 114.871 194.496 115.071 194.928L116.455 197.635C116.486 197.702 116.502 197.776 116.502 197.856C116.502 197.976 116.486 198.011 116.455 198.08L115.071 200.787C114.968 201.006 114.805 201.191 114.601 201.321C114.398 201.45 114.162 201.519 113.92 201.52H102.921C102.823 201.52 102.729 201.481 102.66 201.413C102.59 201.344 102.55 201.25 102.549 201.152V198.955L99.5873 196.024H98.663V204.083C98.663 204.688 99.1597 205.181 99.7733 205.181H115.31C116.805 205.181 117.945 204.568 118.495 203.251L120.192 199.411C120.588 198.411 120.588 197.296 120.192 196.296M143.253 190.533L140.292 193.464V200.893C140.294 200.992 140.262 201.089 140.201 201.167C140.14 201.245 140.053 201.299 139.957 201.32C139.889 201.334 139.819 201.331 139.752 201.312C139.685 201.292 139.624 201.257 139.575 201.208L130.055 191.784C129.618 191.353 129.095 191.02 128.521 190.807C127.947 190.593 127.334 190.505 126.724 190.547C125.635 190.626 124.616 191.116 123.873 191.918C123.13 192.721 122.717 193.776 122.718 194.872V205.184H123.642L126.604 202.253V194.824C126.604 194.624 126.74 194.437 126.939 194.397C127.007 194.383 127.077 194.386 127.144 194.406C127.211 194.425 127.271 194.461 127.321 194.509L136.841 203.933C137.683 204.765 138.871 205.253 140.172 205.171C141.261 205.092 142.279 204.602 143.023 203.799C143.766 202.997 144.179 201.941 144.178 200.845V190.533H143.253ZM137.293 211.995L135.712 209.869C135.606 209.727 135.468 209.612 135.309 209.533C135.15 209.454 134.976 209.413 134.799 209.413H122.938V219.995H126.147V216.429H134.392C134.57 216.429 134.744 216.388 134.903 216.308C135.062 216.229 135.2 216.113 135.306 215.971L135.97 215.08L137.29 213.323C137.433 213.13 137.51 212.895 137.51 212.655C137.51 212.414 137.433 212.18 137.29 211.987V211.992L137.293 211.995ZM126.153 213.731V212.08C126.153 211.909 126.291 211.771 126.463 211.771H133.486C133.595 211.771 133.694 211.821 133.757 211.904L134.39 212.731C134.42 212.769 134.436 212.816 134.436 212.864C134.436 212.912 134.42 212.96 134.39 212.997L133.728 213.899C133.696 213.941 133.655 213.976 133.607 214C133.56 214.024 133.508 214.037 133.455 214.037H126.458C126.417 214.038 126.377 214.03 126.339 214.015C126.302 213.999 126.267 213.976 126.238 213.948C126.209 213.919 126.187 213.885 126.171 213.847C126.155 213.809 126.147 213.769 126.147 213.728H126.15L126.153 213.731ZM82.0906 213.549L81.4425 212.891C81.3945 212.829 81.369 212.752 81.3699 212.674C81.3709 212.595 81.3984 212.519 81.4478 212.459L82.0906 211.845C82.1127 211.821 82.1393 211.802 82.169 211.789C82.1987 211.776 82.2308 211.768 82.2633 211.768H90.5216L92.9175 209.395H81.0733C80.8951 209.394 80.7191 209.435 80.5595 209.515C80.4 209.594 80.2611 209.71 80.1542 209.853L78.2231 211.984C78.0783 212.178 78 212.414 78 212.656C78 212.898 78.0783 213.134 78.2231 213.328L80.0772 215.339C80.2923 215.624 80.6323 215.792 80.9936 215.792H88.5825L89.1775 216.531C89.2251 216.593 89.2502 216.67 89.2488 216.748C89.2473 216.827 89.2194 216.902 89.1695 216.963L88.5905 217.627H80.4384L78.0611 220H89.9053C90.0831 220 90.2585 219.959 90.4176 219.88C90.5767 219.8 90.7151 219.684 90.8217 219.541L92.4075 217.421C92.8591 216.819 92.8591 216.672 92.4022 216.072L90.8961 214.085C90.7891 213.945 90.6512 213.831 90.4932 213.753C90.3351 213.675 90.1612 213.634 89.985 213.635H82.2633C82.2295 213.634 82.1961 213.627 82.1655 213.612C82.1348 213.598 82.1075 213.578 82.0853 213.552L82.0906 213.549ZM105.365 209.416H94.9681C94.7477 209.414 94.529 209.456 94.3247 209.539C94.1203 209.622 93.9343 209.744 93.7773 209.9C93.6204 210.055 93.4955 210.24 93.4099 210.444C93.3244 210.648 93.2798 210.867 93.2787 211.088V218.331C93.2787 219.253 94.0358 220.003 94.9681 220.003H104.677L107.051 217.653V211.093C107.05 210.872 107.006 210.653 106.92 210.449C106.835 210.245 106.71 210.06 106.553 209.905C106.396 209.75 106.21 209.627 106.005 209.544C105.801 209.461 105.582 209.419 105.362 209.421H105.365V209.416ZM104.326 217.093C104.325 217.246 104.263 217.391 104.155 217.498C104.047 217.605 103.901 217.665 103.75 217.664H96.5858C96.4341 217.665 96.2883 217.605 96.1802 217.498C96.0722 217.391 96.0108 217.246 96.0094 217.093V212.315C96.0094 212 96.267 211.744 96.5858 211.744H103.75C104.066 211.744 104.326 212 104.326 212.315V217.093ZM120.245 209.416H109.848C109.628 209.414 109.409 209.456 109.205 209.539C109.001 209.622 108.815 209.744 108.658 209.9C108.501 210.055 108.376 210.24 108.29 210.444C108.205 210.648 108.16 210.867 108.159 211.088V218.331C108.159 219.253 108.916 220.003 109.848 220.003H119.557L121.932 217.653V211.093C121.931 210.872 121.886 210.653 121.801 210.449C121.715 210.245 121.59 210.06 121.433 209.905C121.276 209.75 121.09 209.627 120.886 209.544C120.681 209.461 120.463 209.419 120.242 209.421H120.245V209.416ZM119.201 217.093C119.2 217.246 119.138 217.391 119.03 217.498C118.922 217.605 118.776 217.665 118.625 217.664H111.458C111.383 217.664 111.309 217.65 111.239 217.621C111.17 217.593 111.107 217.551 111.054 217.498C111 217.445 110.958 217.382 110.929 217.313C110.9 217.243 110.885 217.169 110.884 217.093V212.315C110.884 212 111.142 211.744 111.458 211.744H118.625C118.941 211.744 119.201 212 119.201 212.315V217.093ZM161.515 215.96C161.435 215.856 161.333 215.772 161.215 215.714C161.098 215.656 160.969 215.626 160.838 215.627H156.609C156.593 215.627 156.58 215.62 156.569 215.608L156.144 215.176C156.107 215.128 156.107 215.064 156.142 215.024L156.569 214.613C156.569 214.613 156.59 214.597 156.609 214.597H161.234L163.003 212.848H155.828C155.562 212.848 155.307 212.973 155.153 213.181L153.881 214.587C153.772 214.732 153.714 214.909 153.715 215.091C153.717 215.272 153.778 215.449 153.889 215.592L155.098 216.904C155.257 217.115 155.512 217.24 155.778 217.24H159.874L160.232 217.688C160.249 217.711 160.258 217.74 160.257 217.768C160.257 217.797 160.247 217.825 160.23 217.848L159.882 218.248H155.374L153.621 219.997H160.795C161.061 219.997 161.316 219.872 161.475 219.659L162.514 218.267C162.838 217.835 162.838 217.693 162.511 217.267L161.523 215.965L161.515 215.96ZM139.128 218.059L138.719 217.293H144.39L145.955 215.701V212.859H139.242C138.924 212.859 138.677 213.112 138.491 213.341L136.438 216.072C136.302 216.283 136.331 216.555 136.438 216.779L137.705 219.509C137.773 219.652 137.879 219.772 138.012 219.858C138.145 219.943 138.299 219.989 138.456 219.992H144.435L146.085 218.245H139.434C139.304 218.245 139.211 218.192 139.131 218.056L139.128 218.059ZM138.934 215.563L139.484 214.877C139.601 214.733 139.734 214.605 139.92 214.605H144.034V215.563H138.934ZM146.834 212.891V219.997H149.137V214.496H153.028L154.651 212.888L146.834 212.891ZM162.997 55.7813L109.19 75.5173H78L131.808 55.7813H162.997ZM162.995 81.848V151.963C162.992 155.605 161.042 159.003 157.943 160.963L127.709 180.077C125.549 181.441 123.05 182.164 120.499 182.164C117.947 182.164 115.448 181.441 113.288 180.077L82.9937 160.963C81.47 160.01 80.2124 158.683 79.3389 157.109C78.4654 155.534 78.0047 153.762 78 151.96L78 115.843L96.3334 108.512V145.115L120.497 160.395L144.613 145.144V89.2L162.995 81.848ZM162.997 55.7813V77.304L78 111.301V89.7787L162.997 55.7813ZM78 53.9947V75.5173L162.995 41.5227V20L78 53.9947Z" fill="white"/>
</g>
<defs>
<clipPath id="clip0_10_614">
<rect width="85" height="200" fill="white" transform="translate(78 20)"/>
</clipPath>
</defs>
</svg>
