<svg width="240" height="240" viewBox="0 0 240 240" fill="none" xmlns="http://www.w3.org/2000/svg">
<g clip-path="url(#clip0_10_612)">
<path d="M119.202 196.301L117.503 192.461C116.953 191.149 115.813 190.533 114.318 190.533H95.8195V191.451L98.5927 194.197H112.92C113.433 194.197 113.874 194.496 114.071 194.928L115.452 197.635C115.484 197.705 115.5 197.78 115.5 197.857C115.5 197.934 115.484 198.01 115.452 198.08L114.071 200.787C113.968 201.006 113.805 201.191 113.601 201.321C113.398 201.45 113.162 201.519 112.92 201.52H101.924C101.826 201.52 101.732 201.481 101.662 201.413C101.593 201.344 101.553 201.25 101.552 201.152V198.955L98.59 196.027H97.6683V204.085C97.6683 204.691 98.1623 205.184 98.7786 205.184H114.315C115.81 205.184 116.95 204.571 117.5 203.256L119.197 199.416C119.596 198.416 119.596 197.301 119.197 196.301M142.253 190.533L139.292 193.464V200.893C139.294 200.992 139.262 201.089 139.201 201.167C139.14 201.245 139.053 201.299 138.957 201.32C138.889 201.334 138.819 201.331 138.752 201.312C138.685 201.292 138.624 201.257 138.575 201.208L129.055 191.784C128.448 191.187 127.679 190.784 126.845 190.624C126.011 190.464 125.149 190.554 124.365 190.884C123.582 191.213 122.913 191.767 122.442 192.477C121.972 193.186 121.72 194.019 121.718 194.872V205.184H122.642L125.601 202.253V194.827C125.601 194.627 125.74 194.44 125.936 194.4C126.004 194.386 126.075 194.389 126.141 194.408C126.208 194.428 126.269 194.463 126.319 194.512L135.839 203.936C136.681 204.771 137.868 205.259 139.17 205.173C140.258 205.094 141.277 204.604 142.02 203.802C142.763 202.999 143.176 201.944 143.175 200.848V190.533H142.253ZM136.293 211.995L134.712 209.869C134.606 209.727 134.468 209.612 134.309 209.533C134.15 209.454 133.976 209.413 133.799 209.413H121.938V219.995H125.15V216.427H133.395C133.571 216.427 133.746 216.385 133.904 216.306C134.062 216.227 134.2 216.112 134.306 215.971L134.97 215.077L136.29 213.323C136.432 213.13 136.509 212.896 136.509 212.656C136.509 212.416 136.432 212.182 136.29 211.989L136.293 211.995ZM125.153 213.731V212.077C125.153 211.909 125.291 211.771 125.463 211.771H132.486C132.539 211.77 132.591 211.782 132.639 211.805C132.686 211.829 132.728 211.862 132.76 211.904L133.39 212.731C133.451 212.811 133.453 212.92 133.39 212.997L132.731 213.899C132.699 213.942 132.657 213.977 132.609 214.001C132.561 214.025 132.508 214.037 132.455 214.037H125.461C125.42 214.038 125.38 214.03 125.342 214.015C125.304 213.999 125.27 213.976 125.241 213.948C125.212 213.919 125.189 213.885 125.174 213.847C125.158 213.809 125.15 213.769 125.15 213.728L125.153 213.731ZM81.0906 213.547L80.4425 212.891C80.3945 212.829 80.369 212.752 80.3699 212.674C80.3709 212.595 80.3984 212.519 80.4478 212.459L81.0906 211.845C81.1124 211.821 81.139 211.801 81.1687 211.787C81.1984 211.774 81.2306 211.766 81.2633 211.765H89.5242L91.9175 209.392H80.0733C79.8951 209.391 79.7191 209.432 79.5595 209.512C79.4 209.592 79.2611 209.708 79.1542 209.851L77.2231 211.981C77.0783 212.175 77 212.411 77 212.653C77 212.896 77.0783 213.131 77.2231 213.325L79.0772 215.336C79.2897 215.621 79.6323 215.789 79.9909 215.789H87.5825L88.1748 216.528C88.2243 216.589 88.2507 216.666 88.2492 216.745C88.2477 216.824 88.2186 216.9 88.1669 216.96L87.5905 217.627H79.4384L77.0611 219.997H88.908C89.0851 219.998 89.2598 219.957 89.4184 219.877C89.577 219.798 89.7151 219.683 89.8217 219.541L91.4075 217.419C91.8591 216.816 91.8591 216.672 91.4022 216.072L89.8961 214.085C89.7891 213.944 89.6509 213.829 89.4924 213.751C89.3338 213.672 89.1592 213.631 88.9823 213.632H81.2633C81.1956 213.628 81.132 213.599 81.0853 213.549L81.0906 213.547ZM104.365 209.413H93.9681C93.0358 209.413 92.2787 210.163 92.2787 211.085V218.328C92.2787 219.251 93.0358 220 93.9681 220H103.677L106.051 217.651V211.091C106.05 210.869 106.006 210.65 105.92 210.447C105.835 210.243 105.71 210.058 105.553 209.902C105.396 209.747 105.21 209.624 105.005 209.541C104.801 209.458 104.582 209.417 104.362 209.419L104.365 209.413ZM103.326 217.093C103.326 217.169 103.311 217.244 103.281 217.313C103.252 217.383 103.21 217.446 103.156 217.499C103.102 217.552 103.039 217.594 102.969 217.622C102.9 217.65 102.825 217.665 102.75 217.664H95.5858C95.5106 217.665 95.4359 217.65 95.3662 217.622C95.2965 217.594 95.233 217.552 95.1795 217.499C95.1259 217.446 95.0833 217.383 95.0541 217.313C95.0249 217.244 95.0097 217.169 95.0094 217.093V212.315C95.0094 212 95.267 211.747 95.5858 211.747H102.75C103.068 211.747 103.326 212 103.326 212.315V217.093ZM119.245 209.413H108.846C108.626 209.412 108.407 209.453 108.203 209.537C107.999 209.62 107.813 209.743 107.657 209.898C107.5 210.053 107.375 210.238 107.29 210.442C107.205 210.646 107.16 210.864 107.159 211.085V218.328C107.159 219.251 107.916 220 108.848 220H118.557L120.929 217.651V211.091C120.928 210.87 120.884 210.651 120.798 210.447C120.713 210.243 120.588 210.058 120.431 209.903C120.275 209.748 120.089 209.625 119.885 209.542C119.681 209.459 119.463 209.417 119.242 209.419L119.245 209.413ZM118.201 217.093C118.201 217.169 118.186 217.243 118.157 217.313C118.128 217.382 118.085 217.445 118.032 217.498C117.979 217.551 117.916 217.593 117.846 217.621C117.777 217.65 117.702 217.664 117.627 217.664H110.461C110.386 217.664 110.311 217.65 110.242 217.621C110.173 217.593 110.109 217.551 110.056 217.498C110.003 217.445 109.961 217.382 109.932 217.313C109.902 217.243 109.887 217.169 109.887 217.093V212.315C109.887 212 110.145 211.747 110.461 211.747H117.627C117.946 211.747 118.201 212 118.201 212.315V217.093ZM160.515 215.96C160.435 215.856 160.333 215.772 160.215 215.714C160.098 215.656 159.969 215.626 159.838 215.627H155.609C155.591 215.627 155.578 215.62 155.569 215.608L155.144 215.176C155.107 215.128 155.107 215.064 155.142 215.024L155.567 214.616C155.567 214.616 155.593 214.597 155.609 214.597H160.231L162 212.848H154.828C154.562 212.848 154.305 212.973 154.151 213.181L152.881 214.587C152.772 214.732 152.714 214.909 152.715 215.091C152.717 215.272 152.778 215.449 152.889 215.592L154.098 216.904C154.257 217.115 154.512 217.24 154.778 217.24H158.876L159.235 217.688C159.252 217.711 159.261 217.74 159.26 217.768C159.26 217.797 159.25 217.825 159.232 217.848L158.884 218.248H154.377L152.623 220H159.795C159.927 220 160.057 219.97 160.175 219.911C160.293 219.852 160.396 219.767 160.475 219.661L161.517 218.269C161.838 217.837 161.838 217.696 161.511 217.269L160.523 215.965L160.515 215.96ZM138.128 218.059L137.719 217.293H143.393L144.955 215.701V212.859H138.245C137.924 212.859 137.677 213.112 137.493 213.341L135.438 216.075C135.299 216.283 135.331 216.555 135.438 216.779L136.702 219.512C136.84 219.805 137.135 219.992 137.454 219.992H143.43L145.08 218.248H138.428C138.296 218.248 138.205 218.195 138.126 218.056L138.128 218.059ZM137.934 215.563L138.484 214.877C138.601 214.736 138.734 214.605 138.923 214.605H143.034V215.565L137.934 215.563ZM145.834 212.891V219.997H148.137V214.496H152.031L153.651 212.891H145.834ZM161.997 55.7813L108.19 75.5173H77.0027L130.81 55.7813H161.997ZM161.995 81.848V151.963C161.992 155.605 160.042 159.003 156.943 160.963L126.709 180.077C124.549 181.441 122.05 182.164 119.499 182.164C116.947 182.164 114.448 181.441 112.288 180.077L81.9937 160.96C80.4704 160.007 79.213 158.681 78.3395 157.107C77.4661 155.533 77.0052 153.762 77 151.96V115.84L95.3361 108.507V145.109L119.5 160.392L143.616 145.144V89.1973L161.995 81.848ZM161.997 55.7813V77.304L77.0027 111.301V89.776L161.997 55.7813ZM77.0027 53.9947V75.5173L161.997 41.5227V20L77.0027 53.9947Z" fill="#0C50F0"/>
</g>
<defs>
<clipPath id="clip0_10_612">
<rect width="85" height="200" fill="white" transform="translate(77 20)"/>
</clipPath>
</defs>
</svg>
