<svg width="240" height="240" viewBox="0 0 240 240" fill="none" xmlns="http://www.w3.org/2000/svg">
<g clip-path="url(#clip0_10_596)">
<path d="M20 80.9999H187.549C187.308 81.4024 187.057 81.7406 186.752 82.0917C186.655 82.2055 186.558 82.3193 186.46 82.4332L186.314 82.6039C186.12 82.8332 185.93 83.0664 185.741 83.3C184.78 84.4767 183.783 85.5869 182.706 86.6586C182.493 86.8705 182.281 87.0835 182.07 87.2965C181.418 87.9494 180.767 88.5798 180.042 89.1513C179.804 89.3412 179.579 89.5401 179.353 89.7448C178.919 90.1348 178.464 90.4896 177.996 90.8381L177.74 91.0297C176.453 91.9831 175.117 92.8666 173.725 93.6595L173.472 93.804C169.851 95.8529 165.868 97.4219 161.739 98.0484C160.912 98.1784 160.499 98.4944 160 99.1552C159.735 99.5345 159.481 99.9206 159.228 100.308C158.778 100.996 158.319 101.673 157.832 102.336C157.556 102.715 157.292 103.103 157.028 103.492L156.696 103.979L156.531 104.221C156.295 104.568 156.059 104.913 155.821 105.258C155.689 105.45 155.558 105.641 155.426 105.833C155.157 106.225 154.888 106.616 154.619 107.008C154.4 107.326 154.182 107.645 153.963 107.963C153.438 108.73 152.909 109.494 152.377 110.257C151.797 111.091 151.222 111.928 150.652 112.769C150.141 113.521 149.623 114.267 149.103 115.013C148.53 115.836 147.964 116.663 147.399 117.492C146.739 118.459 146.074 119.423 145.404 120.383C144.758 121.314 144.115 122.247 143.477 123.184C142.817 124.151 142.152 125.115 141.483 126.075C140.836 127.006 140.194 127.939 139.556 128.876C138.895 129.843 138.231 130.807 137.561 131.767C136.914 132.698 136.272 133.631 135.634 134.568C134.974 135.535 134.309 136.498 133.64 137.459C132.993 138.39 132.351 139.323 131.713 140.26C131.056 141.22 130.396 142.178 129.73 143.133C129.078 144.07 128.433 145.013 127.791 145.958C127.362 146.587 126.931 147.216 126.499 147.843C126.373 148.027 126.247 148.21 126.122 148.393C125.595 149.161 125.066 149.926 124.534 150.689C123.822 151.713 123.119 152.742 122.418 153.774C121.687 154.848 120.946 155.916 120.203 156.983C119.705 157.698 119.212 158.417 118.724 159.14L118.576 159.358L118.448 159.548C118.239 159.836 118.167 159.897 117.803 159.958C117.182 159.941 116.722 159.542 116.232 159.196L115.917 158.98C113.528 157.324 111.227 155.501 109.51 153.13L109.38 152.952C107.955 150.98 107.171 148.789 107.479 146.335C107.807 144.333 109.077 142.69 110.196 141.06L110.499 140.615C110.714 140.3 110.931 139.986 111.148 139.673C111.37 139.351 111.592 139.027 111.814 138.704L112.083 138.312L112.218 138.115L121.25 124.965L121.385 124.769C121.475 124.638 121.565 124.506 121.655 124.375C121.874 124.056 122.093 123.738 122.311 123.419C122.837 122.653 123.366 121.888 123.897 121.126C124.55 120.188 125.195 119.246 125.837 118.301C126.266 117.671 126.696 117.042 127.129 116.415C127.254 116.232 127.38 116.048 127.506 115.865C128.032 115.098 128.561 114.332 129.093 113.569C129.746 112.631 130.391 111.689 131.033 110.744C131.462 110.114 131.892 109.486 132.325 108.858C132.451 108.675 132.576 108.492 132.702 108.308C133.228 107.541 133.757 106.776 134.289 106.012C134.942 105.075 135.587 104.132 136.229 103.188C136.656 102.559 137.087 101.932 137.518 101.306L137.922 100.717L138.062 100.513C138.148 100.388 138.234 100.263 138.319 100.138C138.648 99.6598 138.978 99.1822 139.308 98.7053L139.608 98.2719L139.369 98.2718C130.768 98.2675 122.167 98.2629 113.567 98.2563L113.177 98.256C108.875 98.2528 104.573 98.2494 100.27 98.2458C95.9224 98.2423 91.5743 98.2396 87.2263 98.2379C81.848 98.2357 76.4697 98.2317 71.0915 98.2261C69.0613 98.2244 67.0312 98.2234 65.0011 98.2231C62.9581 98.2226 60.9151 98.221 58.8721 98.2184C57.6596 98.2168 56.4472 98.2162 55.2348 98.2166C54.4229 98.2169 53.611 98.2161 52.7992 98.2143C52.3379 98.2134 51.8767 98.2129 51.4152 98.2138C42.1009 98.2289 33.477 94.8735 26.6265 88.4955C26.4267 88.3127 26.2239 88.1334 26.0179 87.9577C25.5401 87.5404 25.0925 87.0935 24.6453 86.6439C24.5038 86.502 24.3621 86.3604 24.2201 86.219C23.7075 85.7062 23.2149 85.1831 22.7451 84.631C22.6427 84.514 22.54 84.3972 22.4373 84.2806C21.8098 83.5639 21.204 82.8354 20.6216 82.0817C20.474 81.8906 20.322 81.703 20.1657 81.519C20 81.2943 20 81.2943 20 80.9999ZM200.347 80.9646L200.601 80.9637C200.883 80.9633 201.165 80.9649 201.446 80.9664H202.052C202.6 80.9662 203.149 80.968 203.697 80.9701C204.27 80.9719 204.843 80.972 205.416 80.9724C206.501 80.9734 207.586 80.9758 208.671 80.9787C209.906 80.9819 211.142 80.9836 212.377 80.9851C214.918 80.9881 217.459 80.9933 220 80.9999C219.94 81.3246 219.886 81.5565 219.694 81.8268L219.565 82.0121L219.424 82.2083L219.128 82.6302L218.974 82.8471C218.741 83.1778 218.513 83.5119 218.284 83.8459L218.013 84.2411C217.839 84.4937 217.666 84.7465 217.493 84.9994C216.967 85.7659 216.438 86.5304 215.907 87.2929C215.327 88.1268 214.752 88.9642 214.181 89.8049C213.67 90.5566 213.152 91.3033 212.632 92.0491C212.06 92.871 211.495 93.6974 210.93 94.5249C210.567 95.0578 210.201 95.5891 209.835 96.1207C209.708 96.3059 209.581 96.4911 209.454 96.6764C208.928 97.4434 208.399 98.2083 207.868 98.9712C207.287 99.8053 206.712 100.643 206.142 101.484C205.635 102.229 205.121 102.969 204.606 103.708C204.162 104.347 203.721 104.988 203.284 105.632C202.713 106.473 202.136 107.31 201.554 108.144C200.982 108.965 200.416 109.792 199.852 110.619C199.488 111.152 199.122 111.683 198.757 112.215C198.63 112.4 198.503 112.586 198.376 112.771C197.85 113.538 197.321 114.303 196.789 115.066C196.209 115.9 195.634 116.737 195.063 117.578C194.557 118.324 194.043 119.063 193.527 119.803C193.083 120.441 192.643 121.083 192.206 121.727C191.704 122.466 191.197 123.202 190.686 123.935C189.982 124.946 189.287 125.963 188.595 126.982C187.934 127.954 187.265 128.92 186.593 129.884C186.013 130.718 185.438 131.556 184.867 132.397C184.425 133.046 183.979 133.693 183.529 134.337C182.825 135.348 182.13 136.366 181.438 137.385C180.777 138.356 180.108 139.322 179.436 140.287C178.724 141.31 178.021 142.34 177.32 143.371C176.659 144.343 175.99 145.309 175.319 146.273C174.738 147.107 174.163 147.945 173.593 148.786C173.151 149.435 172.705 150.082 172.255 150.726C171.55 151.737 170.856 152.754 170.163 153.774C169.432 154.848 168.691 155.916 167.948 156.983C167.45 157.698 166.957 158.417 166.469 159.14L166.321 159.358L166.193 159.548C166.005 159.807 165.922 159.894 165.6 159.957C163.529 159.868 160.76 156.865 159.314 155.486L159.061 155.249C157.062 153.32 155.247 150.702 155.15 147.846C155.121 145.132 156.508 143.03 158.025 140.905C158.349 140.451 158.663 139.992 158.977 139.532L159.138 139.295L159.455 138.83C159.689 138.487 159.924 138.145 160.159 137.803L160.292 137.61L160.555 137.227C160.824 136.836 161.093 136.445 161.361 136.053C161.58 135.735 161.799 135.416 162.017 135.097C162.543 134.331 163.071 133.566 163.603 132.804C164.315 131.78 165.018 130.751 165.719 129.719C166.38 128.748 167.049 127.782 167.721 126.817C168.301 125.983 168.876 125.146 169.446 124.305C169.888 123.655 170.335 123.009 170.784 122.364C171.489 121.354 172.183 120.336 172.876 119.317C173.537 118.345 174.206 117.379 174.877 116.415C175.59 115.392 176.293 114.362 176.994 113.331C177.655 112.359 178.324 111.393 178.995 110.429C179.575 109.594 180.151 108.757 180.721 107.916C181.163 107.266 181.61 106.62 182.059 105.976C182.763 104.965 183.458 103.947 184.15 102.928C184.901 101.825 185.661 100.729 186.423 99.6352L186.617 99.3568L186.789 99.1099C186.98 98.8326 187.166 98.5521 187.353 98.2719L173.529 98.1738V97.9775L173.773 97.9192C181.101 96.1259 187.464 92.9799 193.039 87.8695L193.189 87.7326C194.099 86.9035 195.001 86.0693 195.801 85.1319C196.011 84.8903 196.229 84.657 196.446 84.4224C196.816 84.0163 197.163 83.599 197.5 83.1651L197.635 82.9908L197.77 82.817C198.032 82.4801 198.297 82.1464 198.566 81.8157L198.795 81.5324C199.269 81.0293 199.673 80.9572 200.347 80.9646Z" fill="#E2012D"/>
<path d="M49.5098 102.394H131.667C131.471 102.851 131.331 103.174 131.06 103.565L130.879 103.829L130.686 104.105L130.486 104.396C130.353 104.589 130.219 104.782 130.086 104.974C129.887 105.261 129.69 105.549 129.493 105.837C128.813 106.831 128.125 107.82 127.436 108.808C127.275 109.039 127.114 109.271 126.954 109.503C126.868 109.626 126.783 109.748 126.697 109.871L126.482 110.181C126.194 110.541 125.929 110.785 125.49 110.932C125.344 110.941 125.198 110.944 125.051 110.944L124.777 110.945L124.474 110.945L124.152 110.945C123.792 110.946 123.433 110.946 123.073 110.945L122.296 110.946C121.656 110.947 121.016 110.947 120.376 110.947C119.61 110.948 118.844 110.948 118.078 110.949C116.226 110.95 114.374 110.951 112.522 110.951C111.646 110.952 110.769 110.952 109.893 110.952C106.138 110.954 102.382 110.955 98.6262 110.955H98.3416C95.2977 110.956 92.2538 110.957 89.21 110.959C85.6383 110.962 82.0666 110.963 78.495 110.963H78.2312C76.8318 110.964 75.4324 110.965 74.033 110.966C72.6254 110.967 71.2177 110.968 69.8102 110.967C68.9745 110.967 68.1388 110.967 67.3032 110.968C66.744 110.969 66.1849 110.969 65.6257 110.968C65.3078 110.968 64.9898 110.968 64.6718 110.969C63.0477 110.974 61.4766 110.93 59.9264 110.386L59.7098 110.311C57.5525 109.538 55.4878 108.373 53.7255 106.908L53.5611 106.773C52.2861 105.725 51.1051 104.588 50.098 103.277L49.9138 103.039C49.5098 102.51 49.5098 102.51 49.5098 102.394ZM65.6862 115.152H122.941C122.668 115.699 122.401 116.18 122.053 116.673L121.764 117.087L121.616 117.298C121.386 117.628 121.159 117.96 120.931 118.292L120.659 118.688L120.524 118.885L120.143 119.439L119.89 119.807L119.761 119.994C119.506 120.364 119.254 120.736 119.003 121.109C118.854 121.331 118.705 121.553 118.555 121.775C118.446 121.938 118.337 122.101 118.228 122.265L118.022 122.571L117.839 122.845C117.502 123.294 117.208 123.619 116.667 123.788C116.333 123.812 116.333 123.812 115.942 123.812L115.723 123.813C115.48 123.813 115.237 123.812 114.994 123.811C114.818 123.812 114.643 123.812 114.467 123.812C113.986 123.812 113.504 123.812 113.023 123.811C112.506 123.81 111.989 123.81 111.473 123.81C110.466 123.81 109.459 123.809 108.452 123.808C107.637 123.806 106.822 123.805 106.006 123.805C103.375 123.802 100.744 123.798 98.1125 123.792C96.8357 123.789 95.559 123.787 94.2822 123.785L93.9494 123.784C91.5639 123.781 89.1785 123.775 86.7931 123.766C86.1197 123.764 85.4463 123.762 84.7729 123.761C83.955 123.76 83.1371 123.757 82.3191 123.753C81.9056 123.751 81.492 123.749 81.0784 123.749C76.4274 123.749 72.36 122.074 68.936 118.88C68.7441 118.702 68.5467 118.534 68.3455 118.366C67.5305 117.651 66.8234 116.815 66.1519 115.967L66.01 115.789C65.6862 115.372 65.6862 115.372 65.6862 115.152ZM81.9607 127.909H114.216C113.665 128.902 113.665 128.902 113.429 129.232L113.269 129.458L113.1 129.694C112.915 129.957 112.729 130.22 112.544 130.483C112.229 130.933 111.92 131.387 111.611 131.841L111.426 132.113C111.304 132.293 111.182 132.472 111.061 132.652C109.694 134.664 109.694 134.664 109.056 135.564L108.937 135.733C108.457 136.406 108.457 136.406 108.039 136.545C107.871 136.555 107.703 136.558 107.535 136.559L107.218 136.56L106.871 136.56L106.506 136.561C106.174 136.561 105.842 136.562 105.51 136.562L104.887 136.562C104.16 136.563 103.432 136.564 102.705 136.564C102.031 136.564 101.357 136.564 100.683 136.566C100.101 136.567 99.5204 136.568 98.9394 136.568C98.5935 136.568 98.2475 136.568 97.9015 136.569C93.295 136.582 89.3205 135.282 85.7843 132.227L85.5629 132.038C84.4009 131.019 83.2965 129.92 82.3529 128.694L82.1339 128.438C81.9607 128.204 81.9607 128.204 81.9607 127.909Z" fill="#E2012D"/>
</g>
<defs>
<clipPath id="clip0_10_596">
<rect width="200" height="79" fill="white" transform="translate(20 81)"/>
</clipPath>
</defs>
</svg>
