<svg xmlns="http://www.w3.org/2000/svg" width="748.000000pt" height="401.000000pt" version="1.0" viewBox="0 0 748.000000 401.000000"><path d="M411 1.7c-35.7 3.6-60.6 10.8-91.4 26.5-32.2 16.5-67 43.2-112.1 85.8-15.2 14.4-32.2 29.6-42.5 38-5.6 4.7-14.7 12.5-20.1 17.5-12.4 11.3-101.6 97.9-101.4 98.3.2.2 7.9-4.4 17.1-10.1 24.4-15 20.7-13.9 35.4-11 11.3 2.3 15 2.6 39.5 2.7 29.2.1 36.8-.8 58.1-7 4.8-1.4 9-2.1 9.4-1.7s2.7 3.7 5.2 7.3c10 14.3 28.5 29.8 46.1 38.7 10 5 28.5 10.9 40.5 12.8 15.7 2.6 56.2.8 56.2-2.4 0-.5-2.6-1.3-5.7-2-21.3-4.7-45.3-17.4-59.7-31.7-13.8-13.7-24.6-33.5-24.6-44.9 0-3.7-1.1-3.1 20.5-11.7 17.2-6.9 23.3-8.9 24-7.8.2.4 1.6 4 3.1 8.1 11.3 31.7 40.7 51.5 73.4 49.6 18.6-1 32.9-7.7 47.1-21.7 13.7-13.6 20.5-28.3 21.7-47.4l.7-10.1 40 .1c35.9 0 70.8 1.5 79.7 3.3 3.3.7 3.2.7-4.7 5-12.7 6.8-29.1 18.1-41.5 28.6-6.3 5.4-25.7 23.8-43 41-30 29.6-48.1 45.8-48.8 43.7-.1-.5 1.3-4.5 3.2-8.8 1.9-4.4 3.7-9.3 4.1-10.9.8-3.7 4.8-8.1-32.6 36-16.3 19.3-39.1 46-50.7 59.5-11.5 13.5-20.8 24.6-20.7 24.8.2.2 8.6-4.7 18.8-10.8l18.5-11.1 13.4-1.4c17.4-1.8 26.6-3.7 41.6-8.7q34.95-11.55 70.2-41.1c6.9-5.7 26.5-24.5 43.5-41.7 33.5-33.7 44.7-43.7 59.7-53.7 33.1-21.8 68.6-27.1 132.2-19.8 6.6.8 12.4 1.1 12.9.8 3.8-2.3-37.2-33.2-64.8-48.9-62.7-35.5-148.7-59.5-225.5-63l-13.5-.7-7.5 5c-20.8 13.9-35.3 23.4-37.3 24.4-3 1.6 1.4-3.2 26.8-28.9C437 88.6 446.1 79 445.7 79s-6 2.2-12.5 4.9c-13.9 5.9-33.4 12.7-41.7 14.6-3.3.8-12.1 2.1-19.5 3-19 2.1-35.9 5.1-51.8 9-7.5 1.8-13.9 3.1-14.1 2.9-.3-.2.3-1 1.1-1.7.9-.6 5.9-4.7 11.3-9.1 28.9-23.5 60.3-42.1 87.1-51.6 18.9-6.7 47-12.7 70.3-15 25.4-2.5 64.2-.5 86.9 4.4 7.6 1.7 7.2.8-2.7-5.8C534 17.5 500.2 5.9 464.8 2.1c-8.9-1-45.4-1.3-53.8-.4m8.3 184.7c-.5 12.8-8.7 25.9-20.5 32.9-15.9 9.4-36.3 6.8-50.2-6.3-5.9-5.5-11.6-15.8-11.6-20.8 0-2.9.2-3 6.8-4.5 17.2-3.9 55.7-8.6 68.2-8.3l7.5.1zM127.5 173.7c-2.2 1.3-8.5 4.6-14 7.3-31.7 15.2-59.2 17.7-100.9 9-5.4-1.1-10.5-2-11.3-2-4.3 0 13.1 20.6 25 29.6 3.4 2.5 9.7 6.6 14 9.1 4.2 2.5 7.7 4.9 7.7 5.4 0 2.1-4.3 9.2-10.5 17.4-7.5 10-8.8 10.9 19.6-14.5 17.6-15.9 34.4-30.2 60.4-51.5 16.6-13.5 17.6-14.5 10-9.8"/><path d="M254.7 332.7c11.8 14 34.9 28.4 58.2 36.2 17 5.7 13.7 7 36.1-15 10.7-10.6 18.9-19.4 18.3-19.6-.7-.3-2.7 0-4.5.6-5.3 1.6-20.3 4-33 5.1-23.4 2-54.1-2.6-77.3-11.6-1.4-.6-.7.7 2.2 4.3"/></svg>